<svg width="1500" height="500" viewBox="0 0 1500 500" fill="none" xmlns="http://www.w3.org/2000/svg">
<g clip-path="url(#clip0_4_498)">
<rect width="1500" height="500" rx="50" fill="#001829"/>
<path d="M551.534 163C551.489 162.432 551.276 161.989 550.895 161.67C550.52 161.352 549.949 161.193 549.182 161.193C548.693 161.193 548.293 161.253 547.98 161.372C547.673 161.486 547.446 161.642 547.298 161.841C547.151 162.04 547.074 162.267 547.068 162.523C547.057 162.733 547.094 162.923 547.179 163.094C547.27 163.259 547.412 163.409 547.605 163.545C547.798 163.676 548.045 163.795 548.347 163.903C548.648 164.011 549.006 164.108 549.42 164.193L550.852 164.5C551.818 164.705 552.645 164.974 553.332 165.31C554.02 165.645 554.582 166.04 555.02 166.494C555.457 166.943 555.778 167.449 555.983 168.011C556.193 168.574 556.301 169.187 556.307 169.852C556.301 171 556.014 171.972 555.446 172.767C554.878 173.562 554.065 174.168 553.009 174.582C551.957 174.997 550.693 175.205 549.216 175.205C547.699 175.205 546.375 174.98 545.244 174.531C544.119 174.082 543.244 173.392 542.619 172.46C542 171.523 541.688 170.324 541.682 168.864H546.182C546.21 169.398 546.344 169.847 546.582 170.21C546.821 170.574 547.156 170.849 547.588 171.037C548.026 171.224 548.545 171.318 549.148 171.318C549.653 171.318 550.077 171.256 550.418 171.131C550.759 171.006 551.017 170.832 551.193 170.611C551.369 170.389 551.46 170.136 551.466 169.852C551.46 169.585 551.372 169.352 551.202 169.153C551.037 168.949 550.764 168.767 550.384 168.608C550.003 168.443 549.489 168.29 548.841 168.148L547.102 167.773C545.557 167.437 544.338 166.878 543.446 166.094C542.56 165.304 542.119 164.227 542.125 162.864C542.119 161.756 542.415 160.787 543.011 159.957C543.614 159.122 544.446 158.472 545.509 158.006C546.577 157.54 547.801 157.307 549.182 157.307C550.591 157.307 551.81 157.543 552.838 158.014C553.866 158.486 554.659 159.151 555.216 160.009C555.778 160.861 556.063 161.858 556.068 163H551.534ZM564.109 175V157.545H576.689V161.364H568.848V164.364H576.041V168.182H568.848V171.182H576.655V175H564.109ZM600.141 157.545V175H596.187L589.88 165.83H589.778V175H585.039V157.545H589.062L595.266 166.682H595.403V157.545H600.141ZM613.121 157.545V175H608.383V157.545H613.121ZM638.276 166.273C638.276 168.216 637.898 169.855 637.143 171.19C636.387 172.52 635.367 173.528 634.083 174.216C632.799 174.898 631.367 175.239 629.788 175.239C628.197 175.239 626.759 174.895 625.475 174.207C624.197 173.514 623.18 172.503 622.424 171.173C621.674 169.838 621.299 168.205 621.299 166.273C621.299 164.33 621.674 162.693 622.424 161.364C623.18 160.028 624.197 159.02 625.475 158.338C626.759 157.651 628.197 157.307 629.788 157.307C631.367 157.307 632.799 157.651 634.083 158.338C635.367 159.02 636.387 160.028 637.143 161.364C637.898 162.693 638.276 164.33 638.276 166.273ZM633.401 166.273C633.401 165.227 633.262 164.347 632.984 163.631C632.711 162.909 632.305 162.364 631.765 161.994C631.231 161.619 630.572 161.432 629.788 161.432C629.004 161.432 628.342 161.619 627.802 161.994C627.268 162.364 626.862 162.909 626.583 163.631C626.31 164.347 626.174 165.227 626.174 166.273C626.174 167.318 626.31 168.202 626.583 168.923C626.862 169.639 627.268 170.185 627.802 170.56C628.342 170.929 629.004 171.114 629.788 171.114C630.572 171.114 631.231 170.929 631.765 170.56C632.305 170.185 632.711 169.639 632.984 168.923C633.262 168.202 633.401 167.318 633.401 166.273ZM646.469 175V157.545H654.003C655.298 157.545 656.432 157.781 657.403 158.253C658.375 158.724 659.131 159.403 659.67 160.29C660.21 161.176 660.48 162.239 660.48 163.477C660.48 164.727 660.202 165.781 659.645 166.639C659.094 167.497 658.318 168.145 657.318 168.582C656.324 169.02 655.162 169.239 653.832 169.239H649.332V165.557H652.878C653.435 165.557 653.909 165.489 654.301 165.352C654.699 165.21 655.003 164.986 655.213 164.679C655.429 164.372 655.537 163.972 655.537 163.477C655.537 162.977 655.429 162.571 655.213 162.259C655.003 161.94 654.699 161.707 654.301 161.56C653.909 161.406 653.435 161.33 652.878 161.33H651.207V175H646.469ZM656.696 166.989L661.06 175H655.912L651.651 166.989H656.696ZM683.713 175L678.565 157.545H683.849L686.236 168.284H686.372L689.202 157.545H693.361L696.19 168.318H696.327L698.713 157.545H703.997L698.849 175H694.315L691.349 165.25H691.213L688.247 175H683.713ZM711.531 175V157.545H724.111V161.364H716.27V164.364H723.463V168.182H716.27V171.182H724.077V175H711.531ZM732.461 175V157.545H740.029C741.359 157.545 742.475 157.724 743.379 158.082C744.288 158.44 744.972 158.946 745.433 159.599C745.898 160.253 746.131 161.023 746.131 161.909C746.131 162.551 745.989 163.136 745.705 163.665C745.427 164.193 745.035 164.636 744.529 164.994C744.023 165.347 743.433 165.591 742.756 165.727V165.898C743.506 165.926 744.188 166.116 744.802 166.469C745.415 166.815 745.904 167.295 746.268 167.909C746.631 168.517 746.813 169.233 746.813 170.057C746.813 171.011 746.563 171.861 746.063 172.605C745.569 173.349 744.864 173.935 743.95 174.361C743.035 174.787 741.944 175 740.677 175H732.461ZM737.2 171.216H739.415C740.211 171.216 740.808 171.068 741.205 170.773C741.603 170.472 741.802 170.028 741.802 169.443C741.802 169.034 741.708 168.687 741.521 168.403C741.333 168.119 741.066 167.903 740.719 167.756C740.379 167.608 739.967 167.534 739.484 167.534H737.2V171.216ZM737.2 164.602H739.143C739.558 164.602 739.924 164.537 740.242 164.406C740.56 164.276 740.808 164.088 740.984 163.844C741.165 163.594 741.256 163.29 741.256 162.932C741.256 162.392 741.063 161.98 740.677 161.696C740.29 161.406 739.802 161.261 739.211 161.261H737.2V164.602ZM771.989 175H765.273V157.545H771.921C773.717 157.545 775.268 157.895 776.575 158.594C777.887 159.287 778.898 160.287 779.609 161.594C780.325 162.895 780.683 164.455 780.683 166.273C780.683 168.091 780.327 169.653 779.617 170.96C778.907 172.261 777.901 173.261 776.6 173.96C775.299 174.653 773.762 175 771.989 175ZM770.012 170.977H771.819C772.683 170.977 773.418 170.838 774.026 170.56C774.64 170.281 775.106 169.801 775.424 169.119C775.748 168.437 775.91 167.489 775.91 166.273C775.91 165.057 775.745 164.108 775.415 163.426C775.092 162.744 774.614 162.264 773.984 161.986C773.359 161.707 772.592 161.568 771.683 161.568H770.012V170.977ZM788.875 175V157.545H801.455V161.364H793.614V164.364H800.807V168.182H793.614V171.182H801.42V175H788.875ZM814.577 157.545L818.157 169.852H818.293L821.873 157.545H827.225L821.464 175H814.987L809.225 157.545H814.577ZM834.906 175V157.545H847.486V161.364H839.645V164.364H846.838V168.182H839.645V171.182H847.452V175H834.906ZM855.836 175V157.545H860.575V171.182H867.631V175H855.836ZM891.776 166.273C891.776 168.216 891.398 169.855 890.643 171.19C889.887 172.52 888.867 173.528 887.583 174.216C886.299 174.898 884.867 175.239 883.288 175.239C881.697 175.239 880.259 174.895 878.975 174.207C877.697 173.514 876.68 172.503 875.924 171.173C875.174 169.838 874.799 168.205 874.799 166.273C874.799 164.33 875.174 162.693 875.924 161.364C876.68 160.028 877.697 159.02 878.975 158.338C880.259 157.651 881.697 157.307 883.288 157.307C884.867 157.307 886.299 157.651 887.583 158.338C888.867 159.02 889.887 160.028 890.643 161.364C891.398 162.693 891.776 164.33 891.776 166.273ZM886.901 166.273C886.901 165.227 886.762 164.347 886.484 163.631C886.211 162.909 885.805 162.364 885.265 161.994C884.731 161.619 884.072 161.432 883.288 161.432C882.504 161.432 881.842 161.619 881.302 161.994C880.768 162.364 880.362 162.909 880.083 163.631C879.81 164.347 879.674 165.227 879.674 166.273C879.674 167.318 879.81 168.202 880.083 168.923C880.362 169.639 880.768 170.185 881.302 170.56C881.842 170.929 882.504 171.114 883.288 171.114C884.072 171.114 884.731 170.929 885.265 170.56C885.805 170.185 886.211 169.639 886.484 168.923C886.762 168.202 886.901 167.318 886.901 166.273ZM899.969 175V157.545H907.503C908.798 157.545 909.932 157.801 910.903 158.312C911.875 158.824 912.631 159.543 913.17 160.469C913.71 161.395 913.98 162.477 913.98 163.716C913.98 164.966 913.702 166.048 913.145 166.963C912.594 167.878 911.818 168.582 910.818 169.077C909.824 169.571 908.662 169.818 907.332 169.818H902.832V166.136H906.378C906.935 166.136 907.409 166.04 907.801 165.847C908.199 165.648 908.503 165.366 908.713 165.003C908.929 164.639 909.037 164.21 909.037 163.716C909.037 163.216 908.929 162.79 908.713 162.438C908.503 162.08 908.199 161.807 907.801 161.619C907.409 161.426 906.935 161.33 906.378 161.33H904.707V175H899.969ZM921.719 175V157.545H934.298V161.364H926.457V164.364H933.651V168.182H926.457V171.182H934.264V175H921.719ZM942.648 175V157.545H950.183C951.478 157.545 952.612 157.781 953.583 158.253C954.555 158.724 955.31 159.403 955.85 160.29C956.39 161.176 956.66 162.239 956.66 163.477C956.66 164.727 956.381 165.781 955.825 166.639C955.273 167.497 954.498 168.145 953.498 168.582C952.504 169.02 951.342 169.239 950.012 169.239H945.512V165.557H949.058C949.614 165.557 950.089 165.489 950.481 165.352C950.879 165.21 951.183 164.986 951.393 164.679C951.609 164.372 951.717 163.972 951.717 163.477C951.717 162.977 951.609 162.571 951.393 162.259C951.183 161.94 950.879 161.707 950.481 161.56C950.089 161.406 949.614 161.33 949.058 161.33H947.387V175H942.648ZM952.876 166.989L957.239 175H952.092L947.83 166.989H952.876Z" fill="#E5F3FF"/>
<path d="M533.191 211.072V241.664C533.191 246.4 531.847 250.048 529.159 252.608C526.513 255.168 522.929 256.448 518.407 256.448C513.671 256.448 509.873 255.104 507.015 252.416C504.156 249.728 502.727 245.909 502.727 240.96H513.607C513.607 242.837 513.991 244.267 514.759 245.248C515.527 246.187 516.636 246.656 518.087 246.656C519.409 246.656 520.433 246.229 521.159 245.376C521.884 244.523 522.247 243.285 522.247 241.664V211.072H533.191ZM539.855 238.08C539.855 234.411 540.537 231.189 541.903 228.416C543.311 225.643 545.209 223.509 547.599 222.016C549.988 220.523 552.655 219.776 555.599 219.776C558.116 219.776 560.313 220.288 562.191 221.312C564.111 222.336 565.583 223.68 566.607 225.344V220.288H577.551V256H566.607V250.944C565.54 252.608 564.047 253.952 562.127 254.976C560.249 256 558.052 256.512 555.535 256.512C552.633 256.512 549.988 255.765 547.599 254.272C545.209 252.736 543.311 250.581 541.903 247.808C540.537 244.992 539.855 241.749 539.855 238.08ZM566.607 238.144C566.607 235.413 565.839 233.259 564.303 231.68C562.809 230.101 560.975 229.312 558.799 229.312C556.623 229.312 554.767 230.101 553.231 231.68C551.737 233.216 550.991 235.349 550.991 238.08C550.991 240.811 551.737 242.987 553.231 244.608C554.767 246.187 556.623 246.976 558.799 246.976C560.975 246.976 562.809 246.187 564.303 244.608C565.839 243.029 566.607 240.875 566.607 238.144ZM583.292 238.144C583.292 234.432 584.039 231.189 585.532 228.416C587.068 225.643 589.18 223.509 591.868 222.016C594.599 220.523 597.713 219.776 601.212 219.776C605.692 219.776 609.425 220.949 612.412 223.296C615.441 225.643 617.425 228.949 618.364 233.216H606.716C605.735 230.485 603.836 229.12 601.02 229.12C599.015 229.12 597.415 229.909 596.22 231.488C595.025 233.024 594.428 235.243 594.428 238.144C594.428 241.045 595.025 243.285 596.22 244.864C597.415 246.4 599.015 247.168 601.02 247.168C603.836 247.168 605.735 245.803 606.716 243.072H618.364C617.425 247.253 615.441 250.539 612.412 252.928C609.383 255.317 605.649 256.512 601.212 256.512C597.713 256.512 594.599 255.765 591.868 254.272C589.18 252.779 587.068 250.645 585.532 247.872C584.039 245.099 583.292 241.856 583.292 238.144ZM640.474 256.512C636.975 256.512 633.818 255.765 631.002 254.272C628.229 252.779 626.031 250.645 624.41 247.872C622.831 245.099 622.042 241.856 622.042 238.144C622.042 234.475 622.853 231.253 624.474 228.48C626.095 225.664 628.314 223.509 631.13 222.016C633.946 220.523 637.103 219.776 640.602 219.776C644.101 219.776 647.258 220.523 650.074 222.016C652.89 223.509 655.109 225.664 656.73 228.48C658.351 231.253 659.162 234.475 659.162 238.144C659.162 241.813 658.33 245.056 656.666 247.872C655.045 250.645 652.805 252.779 649.946 254.272C647.13 255.765 643.973 256.512 640.474 256.512ZM640.474 247.04C642.565 247.04 644.335 246.272 645.786 244.736C647.279 243.2 648.026 241.003 648.026 238.144C648.026 235.285 647.301 233.088 645.85 231.552C644.442 230.016 642.693 229.248 640.602 229.248C638.469 229.248 636.698 230.016 635.29 231.552C633.882 233.045 633.178 235.243 633.178 238.144C633.178 241.003 633.861 243.2 635.226 244.736C636.634 246.272 638.383 247.04 640.474 247.04ZM675.912 225.344C676.936 223.68 678.408 222.336 680.328 221.312C682.248 220.288 684.445 219.776 686.92 219.776C689.864 219.776 692.531 220.523 694.92 222.016C697.309 223.509 699.187 225.643 700.552 228.416C701.96 231.189 702.664 234.411 702.664 238.08C702.664 241.749 701.96 244.992 700.552 247.808C699.187 250.581 697.309 252.736 694.92 254.272C692.531 255.765 689.864 256.512 686.92 256.512C684.403 256.512 682.205 256.021 680.328 255.04C678.451 254.016 676.979 252.672 675.912 251.008V256H664.968V208.64H675.912V225.344ZM691.528 238.08C691.528 235.349 690.76 233.216 689.224 231.68C687.731 230.101 685.875 229.312 683.656 229.312C681.48 229.312 679.624 230.101 678.088 231.68C676.595 233.259 675.848 235.413 675.848 238.144C675.848 240.875 676.595 243.029 678.088 244.608C679.624 246.187 681.48 246.976 683.656 246.976C685.832 246.976 687.688 246.187 689.224 244.608C690.76 242.987 691.528 240.811 691.528 238.08ZM738.224 256.448C734.939 256.448 731.995 255.915 729.392 254.848C726.789 253.781 724.699 252.203 723.12 250.112C721.584 248.021 720.773 245.504 720.688 242.56H732.336C732.507 244.224 733.083 245.504 734.064 246.4C735.045 247.253 736.325 247.68 737.904 247.68C739.525 247.68 740.805 247.317 741.744 246.592C742.683 245.824 743.152 244.779 743.152 243.456C743.152 242.347 742.768 241.429 742 240.704C741.275 239.979 740.357 239.381 739.248 238.912C738.181 238.443 736.645 237.909 734.64 237.312C731.739 236.416 729.371 235.52 727.536 234.624C725.701 233.728 724.123 232.405 722.8 230.656C721.477 228.907 720.816 226.624 720.816 223.808C720.816 219.627 722.331 216.363 725.36 214.016C728.389 211.627 732.336 210.432 737.2 210.432C742.149 210.432 746.139 211.627 749.168 214.016C752.197 216.363 753.819 219.648 754.032 223.872H742.192C742.107 222.421 741.573 221.291 740.592 220.48C739.611 219.627 738.352 219.2 736.816 219.2C735.493 219.2 734.427 219.563 733.616 220.288C732.805 220.971 732.4 221.973 732.4 223.296C732.4 224.747 733.083 225.877 734.448 226.688C735.813 227.499 737.947 228.373 740.848 229.312C743.749 230.293 746.096 231.232 747.888 232.128C749.723 233.024 751.301 234.325 752.624 236.032C753.947 237.739 754.608 239.936 754.608 242.624C754.608 245.184 753.947 247.509 752.624 249.6C751.344 251.691 749.467 253.355 746.992 254.592C744.517 255.829 741.595 256.448 738.224 256.448ZM783.295 219.904C787.391 219.904 790.676 221.269 793.151 224C795.626 226.688 796.863 230.4 796.863 235.136V256H785.983V236.608C785.983 234.219 785.364 232.363 784.127 231.04C782.89 229.717 781.226 229.056 779.135 229.056C777.044 229.056 775.38 229.717 774.143 231.04C772.906 232.363 772.287 234.219 772.287 236.608V256H761.343V208.64H772.287V225.088C773.396 223.509 774.911 222.251 776.831 221.312C778.751 220.373 780.906 219.904 783.295 219.904ZM839.732 220.288V256H828.788V251.136C827.679 252.715 826.164 253.995 824.244 254.976C822.367 255.915 820.276 256.384 817.972 256.384C815.241 256.384 812.831 255.787 810.74 254.592C808.649 253.355 807.028 251.584 805.876 249.28C804.724 246.976 804.148 244.267 804.148 241.152V220.288H815.028V239.68C815.028 242.069 815.647 243.925 816.884 245.248C818.121 246.571 819.785 247.232 821.876 247.232C824.009 247.232 825.695 246.571 826.932 245.248C828.169 243.925 828.788 242.069 828.788 239.68V220.288H839.732ZM893.161 219.904C897.598 219.904 901.118 221.248 903.721 223.936C906.366 226.624 907.689 230.357 907.689 235.136V256H896.809V236.608C896.809 234.304 896.19 232.533 894.953 231.296C893.758 230.016 892.094 229.376 889.961 229.376C887.828 229.376 886.142 230.016 884.905 231.296C883.71 232.533 883.113 234.304 883.113 236.608V256H872.233V236.608C872.233 234.304 871.614 232.533 870.377 231.296C869.182 230.016 867.518 229.376 865.385 229.376C863.252 229.376 861.566 230.016 860.329 231.296C859.134 232.533 858.537 234.304 858.537 236.608V256H847.593V220.288H858.537V224.768C859.646 223.275 861.097 222.101 862.889 221.248C864.681 220.352 866.708 219.904 868.969 219.904C871.657 219.904 874.046 220.48 876.137 221.632C878.27 222.784 879.934 224.427 881.129 226.56C882.366 224.597 884.052 222.997 886.185 221.76C888.318 220.523 890.644 219.904 893.161 219.904ZM913.167 238.08C913.167 234.411 913.85 231.189 915.215 228.416C916.623 225.643 918.522 223.509 920.911 222.016C923.3 220.523 925.967 219.776 928.911 219.776C931.428 219.776 933.626 220.288 935.503 221.312C937.423 222.336 938.895 223.68 939.919 225.344V220.288H950.863V256H939.919V250.944C938.852 252.608 937.359 253.952 935.439 254.976C933.562 256 931.364 256.512 928.847 256.512C925.946 256.512 923.3 255.765 920.911 254.272C918.522 252.736 916.623 250.581 915.215 247.808C913.85 244.992 913.167 241.749 913.167 238.08ZM939.919 238.144C939.919 235.413 939.151 233.259 937.615 231.68C936.122 230.101 934.287 229.312 932.111 229.312C929.935 229.312 928.079 230.101 926.543 231.68C925.05 233.216 924.303 235.349 924.303 238.08C924.303 240.811 925.05 242.987 926.543 244.608C928.079 246.187 929.935 246.976 932.111 246.976C934.287 246.976 936.122 246.187 937.615 244.608C939.151 243.029 939.919 240.875 939.919 238.144ZM980.541 219.904C984.722 219.904 988.05 221.269 990.525 224C993.042 226.688 994.301 230.4 994.301 235.136V256H983.421V236.608C983.421 234.219 982.802 232.363 981.565 231.04C980.327 229.717 978.663 229.056 976.573 229.056C974.482 229.056 972.818 229.717 971.581 231.04C970.343 232.363 969.725 234.219 969.725 236.608V256H958.781V220.288H969.725V225.024C970.834 223.445 972.327 222.208 974.205 221.312C976.082 220.373 978.194 219.904 980.541 219.904Z" fill="url(#paint0_linear_4_498)"/>
<rect x="548" y="297" width="393" height="50" rx="10" fill="#3B87FF"/>
<path d="M691.859 321.664C691.859 320.416 692.129 319.306 692.669 318.334C693.209 317.35 693.959 316.588 694.919 316.048C695.891 315.496 696.989 315.22 698.213 315.22C699.713 315.22 700.997 315.616 702.065 316.408C703.133 317.2 703.847 318.28 704.207 319.648H700.823C700.571 319.12 700.211 318.718 699.743 318.442C699.287 318.166 698.765 318.028 698.177 318.028C697.229 318.028 696.461 318.358 695.873 319.018C695.285 319.678 694.991 320.56 694.991 321.664C694.991 322.768 695.285 323.65 695.873 324.31C696.461 324.97 697.229 325.3 698.177 325.3C698.765 325.3 699.287 325.162 699.743 324.886C700.211 324.61 700.571 324.208 700.823 323.68H704.207C703.847 325.048 703.133 326.128 702.065 326.92C700.997 327.7 699.713 328.09 698.213 328.09C696.989 328.09 695.891 327.82 694.919 327.28C693.959 326.728 693.209 325.966 692.669 324.994C692.129 324.022 691.859 322.912 691.859 321.664ZM710.664 328.144C709.68 328.144 708.792 327.934 708 327.514C707.22 327.094 706.602 326.494 706.146 325.714C705.702 324.934 705.48 324.022 705.48 322.978C705.48 321.946 705.708 321.04 706.164 320.26C706.62 319.468 707.244 318.862 708.036 318.442C708.828 318.022 709.716 317.812 710.7 317.812C711.684 317.812 712.572 318.022 713.364 318.442C714.156 318.862 714.78 319.468 715.236 320.26C715.692 321.04 715.92 321.946 715.92 322.978C715.92 324.01 715.686 324.922 715.218 325.714C714.762 326.494 714.132 327.094 713.328 327.514C712.536 327.934 711.648 328.144 710.664 328.144ZM710.664 325.48C711.252 325.48 711.75 325.264 712.158 324.832C712.578 324.4 712.788 323.782 712.788 322.978C712.788 322.174 712.584 321.556 712.176 321.124C711.78 320.692 711.288 320.476 710.7 320.476C710.1 320.476 709.602 320.692 709.206 321.124C708.81 321.544 708.612 322.162 708.612 322.978C708.612 323.782 708.804 324.4 709.188 324.832C709.584 325.264 710.076 325.48 710.664 325.48ZM723.673 317.848C724.849 317.848 725.785 318.232 726.481 319C727.189 319.756 727.543 320.8 727.543 322.132V328H724.483V322.546C724.483 321.874 724.309 321.352 723.961 320.98C723.613 320.608 723.145 320.422 722.557 320.422C721.969 320.422 721.501 320.608 721.153 320.98C720.805 321.352 720.631 321.874 720.631 322.546V328H717.553V317.956H720.631V319.288C720.943 318.844 721.363 318.496 721.891 318.244C722.419 317.98 723.013 317.848 723.673 317.848ZM735.279 325.39V328H733.713C732.597 328 731.727 327.73 731.103 327.19C730.479 326.638 730.167 325.744 730.167 324.508V320.512H728.943V317.956H730.167V315.508H733.245V317.956H735.261V320.512H733.245V324.544C733.245 324.844 733.317 325.06 733.461 325.192C733.605 325.324 733.845 325.39 734.181 325.39H735.279ZM736.382 322.96C736.382 321.928 736.574 321.022 736.958 320.242C737.354 319.462 737.888 318.862 738.56 318.442C739.232 318.022 739.982 317.812 740.81 317.812C741.518 317.812 742.136 317.956 742.664 318.244C743.204 318.532 743.618 318.91 743.906 319.378V317.956H746.984V328H743.906V326.578C743.606 327.046 743.186 327.424 742.646 327.712C742.118 328 741.5 328.144 740.792 328.144C739.976 328.144 739.232 327.934 738.56 327.514C737.888 327.082 737.354 326.476 736.958 325.696C736.574 324.904 736.382 323.992 736.382 322.96ZM743.906 322.978C743.906 322.21 743.69 321.604 743.258 321.16C742.838 320.716 742.322 320.494 741.71 320.494C741.098 320.494 740.576 320.716 740.144 321.16C739.724 321.592 739.514 322.192 739.514 322.96C739.514 323.728 739.724 324.34 740.144 324.796C740.576 325.24 741.098 325.462 741.71 325.462C742.322 325.462 742.838 325.24 743.258 324.796C743.69 324.352 743.906 323.746 743.906 322.978ZM748.599 322.978C748.599 321.934 748.809 321.022 749.229 320.242C749.661 319.462 750.255 318.862 751.011 318.442C751.779 318.022 752.655 317.812 753.639 317.812C754.899 317.812 755.949 318.142 756.789 318.802C757.641 319.462 758.199 320.392 758.463 321.592H755.187C754.911 320.824 754.377 320.44 753.585 320.44C753.021 320.44 752.571 320.662 752.235 321.106C751.899 321.538 751.731 322.162 751.731 322.978C751.731 323.794 751.899 324.424 752.235 324.868C752.571 325.3 753.021 325.516 753.585 325.516C754.377 325.516 754.911 325.132 755.187 324.364H758.463C758.199 325.54 757.641 326.464 756.789 327.136C755.937 327.808 754.887 328.144 753.639 328.144C752.655 328.144 751.779 327.934 751.011 327.514C750.255 327.094 749.661 326.494 749.229 325.714C748.809 324.934 748.599 324.022 748.599 322.978ZM765.707 325.39V328H764.141C763.025 328 762.155 327.73 761.531 327.19C760.907 326.638 760.595 325.744 760.595 324.508V320.512H759.371V317.956H760.595V315.508H763.673V317.956H765.689V320.512H763.673V324.544C763.673 324.844 763.745 325.06 763.889 325.192C764.033 325.324 764.273 325.39 764.609 325.39H765.707ZM785.546 315.364V328H782.468V320.422L779.642 328H777.158L774.314 320.404V328H771.236V315.364H774.872L778.418 324.112L781.928 315.364H785.546ZM797.228 322.816C797.228 323.104 797.21 323.404 797.174 323.716H790.208C790.256 324.34 790.454 324.82 790.802 325.156C791.162 325.48 791.6 325.642 792.116 325.642C792.884 325.642 793.418 325.318 793.718 324.67H796.994C796.826 325.33 796.52 325.924 796.076 326.452C795.644 326.98 795.098 327.394 794.438 327.694C793.778 327.994 793.04 328.144 792.224 328.144C791.24 328.144 790.364 327.934 789.596 327.514C788.828 327.094 788.228 326.494 787.796 325.714C787.364 324.934 787.148 324.022 787.148 322.978C787.148 321.934 787.358 321.022 787.778 320.242C788.21 319.462 788.81 318.862 789.578 318.442C790.346 318.022 791.228 317.812 792.224 317.812C793.196 317.812 794.06 318.016 794.816 318.424C795.572 318.832 796.16 319.414 796.58 320.17C797.012 320.926 797.228 321.808 797.228 322.816ZM794.078 322.006C794.078 321.478 793.898 321.058 793.538 320.746C793.178 320.434 792.728 320.278 792.188 320.278C791.672 320.278 791.234 320.428 790.874 320.728C790.526 321.028 790.31 321.454 790.226 322.006H794.078Z" fill="#E5F3FF"/>
<path d="M442.806 365.9C449.173 362.231 457.043 362.231 463.41 365.9V365.9C469.775 369.567 473.712 376.362 473.712 383.708V383.708C473.712 391.053 469.775 397.849 463.41 401.516V401.516C457.043 405.184 449.173 405.184 442.806 401.516V401.516C436.441 397.849 432.504 391.053 432.504 383.708V383.708C432.504 376.362 436.441 369.567 442.806 365.9V365.9Z" stroke="#29A1FF" stroke-opacity="0.25" stroke-width="4"/>
<path d="M551.318 -47.6626C564.527 -55.296 580.807 -55.296 594.016 -47.6626V-47.6626C607.208 -40.0386 615.334 -25.9228 615.334 -10.6856V-10.6856C615.334 4.55161 607.208 18.6674 594.016 26.2915V26.2915C580.807 33.9249 564.527 33.9249 551.318 26.2915V26.2915C538.126 18.6674 530 4.55161 530 -10.6856V-10.6856C530 -25.9228 538.126 -40.0386 551.318 -47.6626V-47.6626Z" stroke="#29A1FF" stroke-opacity="0.25" stroke-width="4"/>
<path d="M34.1595 379.616C39.5336 376.499 46.1652 376.499 51.5394 379.616V379.616C56.8826 382.714 60.1715 388.491 60.1715 394.667V394.667C60.1715 400.844 56.8826 406.62 51.5394 409.719V409.719C46.1652 412.835 39.5336 412.835 34.1595 409.719V409.719C28.8163 406.62 25.5273 400.844 25.5273 394.667V394.667C25.5273 388.491 28.8163 382.714 34.1595 379.616V379.616Z" stroke="#29A1FF" stroke-opacity="0.25" stroke-width="4"/>
<path d="M195.001 373.41C201.843 369.446 210.283 369.446 217.125 373.41V373.41C223.934 377.356 228.126 384.701 228.126 392.57V392.57C228.126 400.44 223.934 407.785 217.125 411.731V411.731C210.283 415.695 201.843 415.695 195.001 411.731V411.731C188.192 407.785 184 400.44 184 392.57V392.57C184 384.701 188.192 377.356 195.001 373.41V373.41Z" stroke="#29A1FF" stroke-opacity="0.25" stroke-width="4"/>
<path d="M1388.78 170.469C1401.01 163.407 1416.11 163.407 1428.34 170.469V170.469C1440.58 177.529 1448.13 190.588 1448.13 204.715V204.715C1448.13 218.842 1440.58 231.9 1428.34 238.961V238.961C1416.11 246.022 1401.01 246.022 1388.78 238.961V238.961C1376.54 231.9 1368.99 218.842 1368.99 204.715V204.715C1368.99 190.588 1376.54 177.529 1388.78 170.469V170.469Z" stroke="#29A1FF" stroke-opacity="0.25" stroke-width="4"/>
<path d="M296.898 -41.8378C306.676 -47.4988 318.734 -47.4988 328.511 -41.8378V-41.8378C338.252 -36.1978 344.249 -25.7162 344.249 -14.4605V-14.4605C344.249 -3.20484 338.252 7.27668 328.511 12.9167V12.9167C318.734 18.5778 306.676 18.5778 296.898 12.9167V12.9167C287.158 7.27668 281.16 -3.20484 281.16 -14.4605V-14.4605C281.16 -25.7162 287.158 -36.1978 296.898 -41.8378V-41.8378Z" stroke="#29A1FF" stroke-opacity="0.25" stroke-width="4"/>
<path d="M1400.77 50.4005C1413.48 43.0431 1429.16 43.0431 1441.87 50.4005V50.4005C1454.55 57.7347 1462.35 71.353 1462.35 85.9948V85.9948C1462.35 100.637 1454.55 114.255 1441.87 121.589V121.589C1429.16 128.947 1413.48 128.947 1400.77 121.589V121.589C1388.1 114.255 1380.3 100.637 1380.3 85.9948V85.9948C1380.3 71.353 1388.1 57.7347 1400.77 50.4005V50.4005Z" stroke="#29A1FF" stroke-opacity="0.25" stroke-width="4"/>
<path d="M172.661 88.7405C181.467 83.6516 192.32 83.6516 201.126 88.7405V88.7405C209.921 93.8232 215.339 103.234 215.339 113.392V113.392C215.339 123.55 209.921 132.961 201.126 138.043V138.043C192.32 143.132 181.467 143.132 172.661 138.043V138.043C163.866 132.961 158.449 123.55 158.449 113.392V113.392C158.449 103.234 163.866 93.8232 172.661 88.7405V88.7405Z" stroke="#29A1FF" stroke-opacity="0.25" stroke-width="4"/>
<path d="M430.008 137.155C439.785 131.494 451.843 131.494 461.62 137.155V137.155C471.361 142.795 477.358 153.277 477.358 164.533V164.533C477.358 175.788 471.361 186.27 461.62 191.91V191.91C451.843 197.571 439.785 197.571 430.008 191.91V191.91C420.267 186.27 414.27 175.788 414.27 164.533V164.533C414.27 153.277 420.267 142.795 430.008 137.155V137.155Z" stroke="#29A1FF" stroke-opacity="0.25" stroke-width="4"/>
<path d="M273.228 152.204C279.595 148.535 287.465 148.535 293.832 152.204V152.204C300.197 155.871 304.134 162.667 304.134 170.012V170.012C304.134 177.357 300.197 184.153 293.832 187.82V187.82C287.465 191.489 279.595 191.489 273.228 187.82V187.82C266.863 184.153 262.926 177.357 262.926 170.012V170.012C262.926 162.667 266.863 155.871 273.228 152.204V152.204Z" stroke="#29A1FF" stroke-opacity="0.25" stroke-width="4"/>
<path d="M350.95 241.967C362.691 235.181 377.162 235.181 388.903 241.967V241.967C400.63 248.743 407.853 261.291 407.853 274.835V274.835C407.853 288.379 400.63 300.927 388.903 307.704V307.704C377.162 314.489 362.691 314.489 350.95 307.704V307.704C339.223 300.927 332 288.379 332 274.835V274.835C332 261.291 339.223 248.743 350.95 241.967V241.967Z" stroke="#29A1FF" stroke-opacity="0.25" stroke-width="4"/>
<path d="M528.043 440.676C537.345 435.311 548.826 435.311 558.129 440.676V440.676C567.429 446.04 573.171 455.966 573.171 466.703V466.703C573.171 477.439 567.429 487.366 558.129 492.73V492.73C548.826 498.095 537.345 498.095 528.043 492.73V492.73C518.742 487.366 513 477.439 513 466.703V466.703C513 455.966 518.742 446.04 528.043 440.676V440.676Z" stroke="#29A1FF" stroke-opacity="0.25" stroke-width="4"/>
<path d="M43.1274 121.155C55.3651 114.093 70.457 114.093 82.6947 121.155V121.155C94.931 128.215 102.478 141.274 102.478 155.401V155.401C102.478 169.528 94.931 182.586 82.6947 189.647V189.647C70.457 196.708 55.3651 196.708 43.1274 189.647V189.647C30.8911 182.586 23.3438 169.528 23.3438 155.401V155.401C23.3438 141.274 30.8911 128.215 43.1274 121.155V121.155Z" stroke="#29A1FF" stroke-opacity="0.25" stroke-width="4"/>
<path d="M1282.55 440.792C1292.82 434.855 1305.49 434.855 1315.76 440.792V440.792C1326.02 446.722 1332.34 457.701 1332.34 469.552V469.552C1332.34 481.403 1326.02 492.382 1315.76 498.312V498.312C1305.49 504.249 1292.82 504.249 1282.55 498.312V498.312C1272.29 492.382 1265.97 481.403 1265.97 469.552V469.552C1265.97 457.701 1272.29 446.722 1282.55 440.792V440.792Z" stroke="#29A1FF" stroke-opacity="0.25" stroke-width="4"/>
<path d="M863.002 476.821C876.685 468.891 893.566 468.891 907.25 476.821V476.821C920.868 484.712 929.251 499.402 929.251 515.141V515.141C929.251 530.88 920.868 545.57 907.25 553.461V553.461C893.566 561.391 876.685 561.391 863.002 553.461V553.461C849.384 545.57 841 530.88 841 515.141V515.141C841 499.402 849.384 484.712 863.002 476.821V476.821Z" stroke="#29A1FF" stroke-opacity="0.25" stroke-width="4"/>
<path d="M1401.02 347.214C1414.7 339.284 1431.59 339.284 1445.27 347.214V347.214C1458.89 355.105 1467.27 369.795 1467.27 385.534V385.534C1467.27 401.273 1458.89 415.963 1445.27 423.854V423.854C1431.59 431.784 1414.7 431.784 1401.02 423.854V423.854C1387.4 415.963 1379.02 401.273 1379.02 385.534V385.534C1379.02 369.795 1387.4 355.105 1401.02 347.214V347.214Z" stroke="#29A1FF" stroke-opacity="0.25" stroke-width="4"/>
<path d="M507.903 54.9455C515.738 50.4287 525.413 50.4287 533.248 54.9455V54.9455C541.08 59.461 545.92 67.8221 545.92 76.863V76.863C545.92 85.9039 541.08 94.265 533.248 98.7805V98.7805C525.413 103.297 515.738 103.297 507.903 98.7805V98.7805C500.07 94.265 495.23 85.9039 495.23 76.863V76.863C495.23 67.8221 500.07 59.461 507.903 54.9455V54.9455Z" stroke="#29A1FF" stroke-opacity="0.25" stroke-width="4"/>
<path d="M56.2187 16.609C65.9958 10.9479 78.054 10.9479 87.8311 16.609V16.609C97.5718 22.249 103.569 32.7305 103.569 43.9862V43.9862C103.569 55.2419 97.5718 65.7235 87.8311 71.3634V71.3634C78.054 77.0245 65.9958 77.0245 56.2187 71.3634V71.3634C46.478 65.7235 40.4805 55.2419 40.4805 43.9862V43.9862C40.4805 32.7305 46.478 22.249 56.2187 16.609V16.609Z" stroke="#29A1FF" stroke-opacity="0.25" stroke-width="4"/>
<path d="M358.581 433.596C368.855 427.659 381.516 427.659 391.79 433.596V433.596C402.051 439.526 408.371 450.505 408.371 462.356V462.356C408.371 474.207 402.051 485.186 391.79 491.116V491.116C381.516 497.053 368.855 497.053 358.581 491.116V491.116C348.32 485.186 342 474.207 342 462.356V462.356C342 450.505 348.32 439.526 358.581 433.596V433.596Z" stroke="#29A1FF" stroke-opacity="0.25" stroke-width="4"/>
<path d="M66.0976 483.706C75.4 478.341 86.8809 478.341 96.1833 483.706V483.706C105.484 489.07 111.226 498.997 111.226 509.734V509.734C111.226 520.47 105.484 530.397 96.1833 535.761V535.761C86.8809 541.126 75.4 541.126 66.0976 535.761V535.761C56.7972 530.397 51.0547 520.47 51.0547 509.734V509.734C51.0547 498.997 56.7972 489.07 66.0976 483.706V483.706Z" stroke="#29A1FF" stroke-opacity="0.25" stroke-width="4"/>
<path d="M775.738 401.152C785.515 395.491 797.573 395.491 807.351 401.152V401.152C817.091 406.792 823.089 417.273 823.089 428.529V428.529C823.089 439.785 817.091 450.266 807.351 455.906V455.906C797.573 461.568 785.515 461.568 775.738 455.906V455.906C765.997 450.266 760 439.785 760 428.529V428.529C760 417.273 765.997 406.792 775.738 401.152V401.152Z" stroke="#29A1FF" stroke-opacity="0.25" stroke-width="4"/>
<path d="M409.261 8.82668C412.692 6.85432 416.951 6.85432 420.383 8.82668V8.82668C423.812 10.7972 425.944 14.461 425.944 18.4156V18.4156C425.944 22.3702 423.812 26.0339 420.383 28.0045V28.0045C416.951 29.9769 412.692 29.9769 409.261 28.0045V28.0045C405.832 26.0339 403.699 22.3702 403.699 18.4156V18.4156C403.699 14.461 405.832 10.7972 409.261 8.82668V8.82668Z" stroke="#29A1FF" stroke-opacity="0.25" stroke-width="4"/>
<path d="M205.561 16.1963C208.993 14.2239 213.252 14.2239 216.684 16.1963V16.1963C220.113 18.1669 222.245 21.8307 222.245 25.7852V25.7852C222.245 29.7398 220.113 33.4036 216.684 35.3741V35.3741C213.252 37.3465 208.993 37.3465 205.561 35.3741V35.3741C202.133 33.4036 200 29.7398 200 25.7852V25.7852C200 21.8307 202.133 18.1669 205.561 16.1963V16.1963Z" stroke="#29A1FF" stroke-opacity="0.25" stroke-width="4"/>
<path d="M34.8129 230.293C46.5542 223.508 61.0249 223.508 72.7662 230.293V230.293C84.493 237.07 91.7158 249.618 91.7158 263.162V263.162C91.7158 276.706 84.493 289.253 72.7662 296.03V296.03C61.0249 302.815 46.5542 302.815 34.8129 296.03V296.03C23.0861 289.253 15.8633 276.706 15.8633 263.162V263.162C15.8633 249.618 23.0861 237.07 34.8129 230.293V230.293Z" stroke="#29A1FF" stroke-opacity="0.25" stroke-width="4"/>
<g filter="url(#filter0_d_4_498)">
<path d="M1047.21 126.225C1056.02 121.136 1066.87 121.136 1075.68 126.225V126.225C1084.47 131.308 1089.89 140.718 1089.89 150.876V150.876C1089.89 161.034 1084.47 170.445 1075.68 175.528V175.528C1066.87 180.617 1056.02 180.617 1047.21 175.528V175.528C1038.42 170.445 1033 161.034 1033 150.876V150.876C1033 140.718 1038.42 131.308 1047.21 126.225V126.225Z" fill="white"/>
</g>
<path d="M1060.47 136C1060.24 136 1060.08 136.002 1060.02 136.008C1059.95 136.015 1059.75 136.035 1059.56 136.049C1055.3 136.434 1051.31 138.732 1048.78 142.265C1047.38 144.23 1046.48 146.458 1046.13 148.819C1046.01 149.643 1046 149.886 1046 151.003C1046 152.12 1046.01 152.363 1046.13 153.188C1046.95 158.82 1050.96 163.552 1056.4 165.306C1057.37 165.619 1058.4 165.833 1059.56 165.962C1060.02 166.012 1061.98 166.012 1062.44 165.962C1064.45 165.74 1066.16 165.241 1067.84 164.382C1068.1 164.25 1068.15 164.215 1068.11 164.186C1068.09 164.168 1066.99 162.693 1065.67 160.911L1063.27 157.67L1060.27 153.223C1058.61 150.777 1057.25 148.778 1057.24 148.778C1057.23 148.774 1057.22 150.751 1057.21 153.164C1057.2 157.389 1057.2 157.559 1057.15 157.659C1057.07 157.803 1057.01 157.861 1056.89 157.926C1056.79 157.972 1056.71 157.981 1056.27 157.981H1055.76L1055.63 157.896C1055.54 157.844 1055.48 157.77 1055.43 157.682L1055.37 157.55L1055.38 151.671L1055.38 145.79L1055.48 145.675C1055.52 145.614 1055.62 145.535 1055.69 145.497C1055.81 145.438 1055.86 145.432 1056.37 145.432C1056.96 145.432 1057.06 145.455 1057.22 145.625C1057.26 145.673 1058.89 148.124 1060.84 151.076C1062.81 154.065 1064.78 157.053 1066.76 160.04L1069.13 163.637L1069.25 163.558C1070.32 162.866 1071.44 161.881 1072.33 160.855C1074.23 158.676 1075.45 156.02 1075.87 153.187C1075.99 152.363 1076 152.12 1076 151.003C1076 149.886 1075.98 149.642 1075.87 148.818C1075.05 143.186 1071.04 138.454 1065.6 136.7C1064.65 136.389 1063.62 136.175 1062.48 136.046C1062.27 136.024 1061.13 136.001 1060.47 136L1060.47 136ZM1065.55 145.021C1065.99 145.021 1066.06 145.028 1066.16 145.08C1066.3 145.15 1066.41 145.285 1066.45 145.426C1066.48 145.502 1066.48 147.133 1066.48 150.806L1066.47 156.078L1065.54 154.653L1064.61 153.228V149.396C1064.61 146.918 1064.62 145.525 1064.64 145.458C1064.68 145.294 1064.79 145.165 1064.93 145.089C1065.05 145.027 1065.09 145.021 1065.55 145.021L1065.55 145.021Z" fill="#2E2E2E"/>
<path d="M1149 24.4104C1155.84 20.4456 1164.28 20.4456 1171.12 24.4104V24.4104C1177.93 28.3561 1182.13 35.7008 1182.13 43.5704V43.5704C1182.13 51.4401 1177.93 58.7848 1171.12 62.7305V62.7305C1164.28 66.6953 1155.84 66.6953 1149 62.7305V62.7305C1142.19 58.7848 1138 51.4401 1138 43.5704V43.5704C1138 35.7008 1142.19 28.3561 1149 24.4104V24.4104Z" stroke="#29A1FF" stroke-opacity="0.25" stroke-width="4"/>
<path d="M1138.32 204.337C1151.53 196.704 1167.81 196.704 1181.02 204.337V204.337C1194.21 211.961 1202.33 226.077 1202.33 241.314V241.314C1202.33 256.552 1194.21 270.667 1181.02 278.291V278.291C1167.81 285.925 1151.53 285.925 1138.32 278.291V278.291C1125.13 270.667 1117 256.552 1117 241.314V241.314C1117 226.077 1125.13 211.961 1138.32 204.337V204.337Z" stroke="#29A1FF" stroke-opacity="0.25" stroke-width="4"/>
<path d="M1105.37 375.47C1108.8 373.498 1113.06 373.498 1116.49 375.47V375.47C1119.92 377.441 1122.05 381.105 1122.05 385.059V385.059C1122.05 389.014 1119.92 392.677 1116.49 394.648V394.648C1113.06 396.62 1108.8 396.62 1105.37 394.648V394.648C1101.94 392.677 1099.8 389.014 1099.8 385.059V385.059C1099.8 381.105 1101.94 377.441 1105.37 375.47V375.47Z" stroke="#29A1FF" stroke-opacity="0.25" stroke-width="4"/>
<path d="M1015.26 315.669C1019.17 313.4 1023.99 313.4 1027.9 315.669V315.669C1031.78 317.92 1034.16 322.128 1034.16 326.612V326.612C1034.16 331.095 1031.78 335.303 1027.9 337.555V337.555C1023.99 339.823 1019.17 339.823 1015.26 337.555V337.555C1011.39 335.303 1009 331.095 1009 326.612V326.612C1009 322.128 1011.39 317.92 1015.26 315.669V315.669Z" stroke="#29A1FF" stroke-opacity="0.25" stroke-width="4"/>
<path d="M935.37 20.7812C943.679 15.9682 953.928 15.9682 962.238 20.7812V20.7812C970.513 25.574 975.607 34.4871 975.607 44.0498V44.0498C975.607 53.6125 970.513 62.5256 962.238 67.3185V67.3185C953.928 72.1314 943.679 72.1314 935.37 67.3185V67.3185C927.095 62.5256 922 53.6125 922 44.0498V44.0498C922 34.4871 927.095 25.574 935.37 20.7812V20.7812Z" stroke="#29A1FF" stroke-opacity="0.25" stroke-width="4"/>
<path d="M1157.11 503.523C1168.35 497.014 1182.22 497.014 1193.46 503.523V503.523C1204.67 510.01 1211.57 522.06 1211.57 535.009V535.009C1211.57 547.957 1204.67 560.007 1193.46 566.494V566.494C1182.22 573.004 1168.35 573.004 1157.11 566.494V566.494C1145.9 560.007 1139 547.957 1139 535.009V535.009C1139 522.06 1145.9 510.01 1157.11 503.523V503.523Z" stroke="#29A1FF" stroke-opacity="0.25" stroke-width="4"/>
<path d="M1191 358.41C1197.84 354.446 1206.28 354.446 1213.12 358.41V358.41C1219.93 362.356 1224.13 369.701 1224.13 377.57V377.57C1224.13 385.44 1219.93 392.785 1213.12 396.731V396.731C1206.28 400.695 1197.84 400.695 1191 396.731V396.731C1184.19 392.785 1180 385.44 1180 377.57V377.57C1180 369.701 1184.19 362.356 1191 358.41V358.41Z" stroke="#29A1FF" stroke-opacity="0.25" stroke-width="4"/>
<g filter="url(#filter1_d_4_498)">
<path d="M155.397 227.567C168.11 220.21 183.786 220.21 196.498 227.567V227.567C209.171 234.902 216.974 248.52 216.974 263.162V263.162C216.974 277.804 209.171 291.422 196.498 298.756V298.756C183.786 306.114 168.11 306.114 155.397 298.756V298.756C142.725 291.422 134.922 277.804 134.922 263.162V263.162C134.922 248.52 142.725 234.902 155.397 227.567V227.567Z" fill="#06B6D4"/>
</g>
<g clip-path="url(#clip1_4_498)">
<path d="M176.002 248C169.336 248 165.169 251.333 163.502 258C166.002 254.667 168.919 253.417 172.252 254.25C174.154 254.725 175.513 256.104 177.019 257.633C179.471 260.121 182.306 263 188.502 263C195.169 263 199.336 259.667 201.002 253C198.502 256.333 195.586 257.583 192.252 256.75C190.35 256.275 188.992 254.896 187.486 253.367C185.036 250.879 182.2 248 176.002 248ZM163.502 263C156.836 263 152.669 266.333 151.002 273C153.502 269.667 156.419 268.417 159.752 269.25C161.654 269.725 163.013 271.104 164.519 272.633C166.971 275.121 169.806 278 176.002 278C182.669 278 186.836 274.667 188.502 268C186.002 271.333 183.086 272.583 179.752 271.75C177.85 271.275 176.492 269.896 174.986 268.367C172.536 265.879 169.7 263 163.502 263Z" fill="#034D59"/>
</g>
<g filter="url(#filter2_d_4_498)">
<path d="M315.212 67.2249C324.018 62.136 334.871 62.136 343.677 67.2249V67.2249C352.472 72.3076 357.889 81.7181 357.889 91.8763V91.8763C357.889 102.034 352.472 111.445 343.677 116.528V116.528C334.871 121.617 324.018 121.617 315.212 116.528V116.528C306.417 111.445 301 102.034 301 91.8763V91.8763C301 81.7181 306.417 72.3076 315.212 67.2249V67.2249Z" fill="#FFB077"/>
</g>
<path d="M317.352 77.6338L319.535 102.834L329.337 105.634L339.164 102.831L341.352 77.6338H317.352ZM336.602 85.8838H325.102L325.352 89.0713H336.352L335.507 98.5332L329.352 100.289L323.184 98.5388L322.76 93.6963H325.777L325.99 96.1519L329.352 97.0757L332.69 96.1432L333.039 92.1338H322.602L321.815 82.7844H336.864L336.602 85.8838Z" fill="#5C2700"/>
<g filter="url(#filter3_d_4_498)">
<path d="M623.738 395.152C633.515 389.491 645.573 389.491 655.351 395.152V395.152C665.091 400.792 671.089 411.273 671.089 422.529V422.529C671.089 433.785 665.091 444.266 655.351 449.906V449.906C645.573 455.568 633.515 455.568 623.738 449.906V449.906C613.997 444.266 608 433.785 608 422.529V422.529C608 411.273 613.997 400.792 623.738 395.152V395.152Z" fill="#0065FD"/>
</g>
<path d="M625 405.5L627.734 437.002L639.982 440.5L652.266 436.996L655 405.5H625ZM647.709 431.664L640.005 433.859L632.313 431.653L631.786 425.578H635.556L635.824 428.669L640.011 429.853L640.021 429.875L644.198 428.715L644.639 423.703H635.859L635.547 419.797H644.973L645.312 415.812H630.938L630.625 411.984H649.42L647.709 431.664Z" fill="#00255C"/>
<g filter="url(#filter4_d_4_498)">
<path d="M1252.11 293.523C1263.35 287.014 1277.22 287.014 1288.46 293.523V293.523C1299.67 300.01 1306.57 312.06 1306.57 325.009V325.009C1306.57 337.957 1299.67 350.007 1288.46 356.494V356.494C1277.22 363.004 1263.35 363.004 1252.11 356.494V356.494C1240.9 350.007 1234 337.957 1234 325.009V325.009C1234 312.06 1240.9 300.01 1252.11 293.523V293.523Z" fill="#A6F9FF"/>
</g>
<path d="M1285.1 317.353C1284.6 317.182 1284.1 317.023 1283.59 316.876C1283.68 316.534 1283.76 316.19 1283.83 315.845C1284.97 310.288 1284.22 305.812 1281.67 304.338C1279.23 302.924 1275.23 304.397 1271.19 307.921C1270.79 308.269 1270.4 308.627 1270.02 308.995C1269.77 308.75 1269.51 308.511 1269.24 308.276C1265.01 304.509 1260.76 302.922 1258.22 304.4C1255.78 305.817 1255.05 310.025 1256.08 315.292C1256.18 315.813 1256.3 316.331 1256.42 316.848C1255.84 317.013 1255.26 317.195 1254.69 317.395C1249.73 319.128 1246.56 321.846 1246.56 324.664C1246.56 327.576 1249.96 330.496 1255.13 332.267C1255.55 332.409 1255.98 332.542 1256.4 332.664C1256.26 333.217 1256.14 333.776 1256.04 334.341C1255.06 339.517 1255.82 343.625 1258.26 345.033C1260.77 346.487 1265 344.993 1269.11 341.39C1269.44 341.104 1269.76 340.803 1270.09 340.486C1270.5 340.884 1270.92 341.27 1271.36 341.645C1275.34 345.08 1279.28 346.468 1281.71 345.056C1284.22 343.597 1285.04 339.183 1283.98 333.812C1283.9 333.402 1283.8 332.984 1283.7 332.557C1283.99 332.469 1284.28 332.378 1284.57 332.284C1289.94 330.5 1293.44 327.615 1293.44 324.667C1293.44 321.835 1290.17 319.1 1285.1 317.353V317.353ZM1272.51 309.435C1275.97 306.416 1279.2 305.225 1280.67 306.076C1282.24 306.983 1282.85 310.642 1281.87 315.439C1281.8 315.752 1281.73 316.063 1281.66 316.374C1279.59 315.904 1277.5 315.573 1275.39 315.382C1274.18 313.642 1272.86 311.987 1271.43 310.426C1271.78 310.086 1272.14 309.756 1272.5 309.435H1272.51ZM1260.4 327.072C1260.83 327.893 1261.27 328.703 1261.73 329.503C1262.2 330.319 1262.69 331.124 1263.2 331.916C1261.75 331.758 1260.31 331.526 1258.88 331.22C1259.3 329.88 1259.81 328.488 1260.4 327.072V327.072ZM1260.4 322.353C1259.82 320.967 1259.32 319.604 1258.91 318.287C1260.25 317.987 1261.68 317.742 1263.16 317.557C1262.67 318.334 1262.19 319.123 1261.73 319.923C1261.27 320.723 1260.82 321.533 1260.4 322.353H1260.4ZM1261.47 324.713C1262.08 323.426 1262.75 322.163 1263.46 320.926C1264.17 319.689 1264.93 318.48 1265.73 317.3C1267.13 317.194 1268.56 317.139 1270 317.139C1271.45 317.139 1272.89 317.194 1274.28 317.301C1275.07 318.479 1275.83 319.683 1276.54 320.914C1277.25 322.145 1277.92 323.402 1278.56 324.684C1277.93 325.975 1277.26 327.243 1276.54 328.486C1275.83 329.723 1275.08 330.936 1274.3 332.123C1272.91 332.221 1271.46 332.274 1270 332.274C1268.54 332.274 1267.12 332.229 1265.76 332.14C1264.95 330.955 1264.18 329.742 1263.46 328.498C1262.75 327.255 1262.08 325.993 1261.46 324.713H1261.47ZM1278.28 329.489C1278.75 328.67 1279.2 327.84 1279.64 327C1280.23 328.35 1280.76 329.729 1281.21 331.133C1279.77 331.458 1278.31 331.707 1276.84 331.88C1277.33 331.093 1277.81 330.296 1278.28 329.489V329.489ZM1279.62 322.354C1279.18 321.53 1278.73 320.716 1278.27 319.912C1277.81 319.119 1277.34 318.336 1276.84 317.562C1278.34 317.752 1279.77 318.004 1281.12 318.312C1280.68 319.683 1280.18 321.032 1279.62 322.354V322.354ZM1270.02 311.86C1271 312.926 1271.92 314.04 1272.78 315.198C1270.94 315.11 1269.09 315.11 1267.24 315.198C1268.15 313.993 1269.08 312.875 1270.02 311.86V311.86ZM1259.22 306.136C1260.79 305.226 1264.26 306.526 1267.92 309.775C1268.15 309.983 1268.38 310.201 1268.62 310.427C1267.18 311.987 1265.85 313.642 1264.63 315.379C1262.52 315.568 1260.43 315.895 1258.37 316.355C1258.25 315.876 1258.15 315.394 1258.05 314.908C1257.17 310.394 1257.75 306.99 1259.22 306.136ZM1256.94 330.73C1256.55 330.619 1256.16 330.498 1255.78 330.368C1253.5 329.587 1251.61 328.567 1250.31 327.457C1249.15 326.462 1248.56 325.469 1248.56 324.664C1248.56 322.954 1251.11 320.772 1255.35 319.293C1255.89 319.107 1256.42 318.938 1256.97 318.784C1257.6 320.81 1258.36 322.792 1259.25 324.717C1258.35 326.668 1257.58 328.677 1256.94 330.73V330.73ZM1267.79 339.878C1265.97 341.472 1264.15 342.602 1262.54 343.171C1261.1 343.682 1259.95 343.696 1259.26 343.295C1257.78 342.44 1257.16 339.141 1258 334.715C1258.1 334.194 1258.21 333.673 1258.34 333.152C1260.43 333.601 1262.54 333.907 1264.66 334.069C1265.89 335.816 1267.24 337.479 1268.68 339.05C1268.39 339.336 1268.09 339.611 1267.79 339.878ZM1270.08 337.61C1269.13 336.584 1268.18 335.448 1267.26 334.228C1268.16 334.263 1269.07 334.28 1270 334.28C1270.96 334.28 1271.9 334.26 1272.83 334.218C1271.97 335.395 1271.05 336.527 1270.08 337.61V337.61ZM1282.24 340.402C1281.96 341.91 1281.4 342.916 1280.7 343.318C1279.23 344.176 1276.07 343.062 1272.66 340.123C1272.27 339.787 1271.88 339.427 1271.48 339.049C1272.9 337.472 1274.21 335.802 1275.41 334.049C1277.55 333.868 1279.67 333.54 1281.76 333.067C1281.85 333.454 1281.94 333.833 1282.01 334.204C1282.48 336.577 1282.55 338.724 1282.24 340.402V340.402ZM1283.94 330.379C1283.68 330.464 1283.42 330.546 1283.15 330.626C1282.49 328.591 1281.7 326.602 1280.78 324.675C1281.67 322.773 1282.43 320.813 1283.06 318.81C1283.54 318.949 1284 319.096 1284.45 319.251C1288.79 320.747 1291.44 322.962 1291.44 324.664C1291.44 326.48 1288.58 328.838 1283.94 330.379V330.379Z" fill="#00565C"/>
<path d="M1270 328.859C1270.83 328.862 1271.64 328.618 1272.34 328.158C1273.03 327.699 1273.57 327.044 1273.89 326.277C1274.21 325.51 1274.29 324.665 1274.13 323.849C1273.97 323.034 1273.57 322.284 1272.99 321.696C1272.4 321.107 1271.65 320.706 1270.84 320.543C1270.02 320.379 1269.18 320.462 1268.41 320.779C1267.64 321.097 1266.99 321.635 1266.52 322.326C1266.06 323.017 1265.81 323.829 1265.81 324.66C1265.81 325.211 1265.92 325.756 1266.13 326.265C1266.34 326.774 1266.65 327.237 1267.04 327.627C1267.43 328.017 1267.89 328.327 1268.4 328.538C1268.9 328.75 1269.45 328.859 1270 328.859Z" fill="#00565C"/>
<g filter="url(#filter5_d_4_498)">
<path d="M261.95 441.967C273.691 435.181 288.162 435.181 299.903 441.967V441.967C311.63 448.743 318.853 461.291 318.853 474.835V474.835C318.853 488.379 311.63 500.927 299.903 507.704V507.704C288.162 514.489 273.691 514.489 261.95 507.704V507.704C250.223 500.927 243 488.379 243 474.835V474.835C243 461.291 250.223 448.743 261.95 441.967V441.967Z" fill="#00C7B7"/>
</g>
<g clip-path="url(#clip2_4_498)">
<path d="M292.279 467.139L292.261 467.131C292.25 467.127 292.24 467.123 292.231 467.114C292.216 467.098 292.205 467.079 292.198 467.058C292.192 467.037 292.191 467.014 292.194 466.993L293.202 460.83L297.929 465.558L293.013 467.65C292.999 467.656 292.985 467.658 292.97 467.658H292.951C292.941 467.652 292.932 467.644 292.924 467.636C292.741 467.432 292.523 467.264 292.279 467.139V467.139ZM299.135 466.763L304.19 471.818C305.24 472.869 305.765 473.393 305.957 474.001C305.986 474.091 306.009 474.181 306.027 474.273L293.948 469.158C293.942 469.155 293.935 469.152 293.929 469.15C293.88 469.13 293.824 469.108 293.824 469.058C293.824 469.009 293.882 468.985 293.93 468.966L293.946 468.959L299.135 466.763ZM305.821 475.895C305.56 476.386 305.052 476.894 304.191 477.756L298.493 483.453L291.122 481.919L291.083 481.911C291.018 481.9 290.949 481.888 290.949 481.83C290.921 481.526 290.831 481.231 290.684 480.963C290.537 480.696 290.336 480.461 290.095 480.274C290.065 480.244 290.073 480.197 290.082 480.154C290.082 480.148 290.082 480.141 290.084 480.136L291.471 471.626L291.476 471.597C291.484 471.532 291.495 471.456 291.554 471.456C291.851 471.419 292.138 471.324 292.398 471.175C292.657 471.026 292.885 470.827 293.067 470.589C293.078 470.576 293.086 470.562 293.102 470.554C293.144 470.534 293.193 470.554 293.236 470.572L305.82 475.895H305.821ZM297.182 484.764L287.811 494.135L289.416 484.276L289.418 484.263C289.419 484.25 289.422 484.238 289.426 484.225C289.439 484.194 289.473 484.181 289.506 484.168L289.521 484.162C289.872 484.012 290.183 483.781 290.427 483.487C290.459 483.451 290.497 483.416 290.545 483.409C290.557 483.407 290.57 483.407 290.583 483.409L297.181 484.765L297.182 484.764ZM285.828 496.118L284.772 497.174L273.094 480.298C273.09 480.292 273.086 480.285 273.081 480.279C273.063 480.254 273.044 480.23 273.047 480.201C273.049 480.18 273.062 480.162 273.076 480.146L273.089 480.129C273.125 480.077 273.154 480.025 273.187 479.969L273.213 479.923L273.217 479.919C273.235 479.888 273.252 479.858 273.284 479.841C273.311 479.828 273.349 479.833 273.379 479.84L286.316 482.508C286.352 482.514 286.386 482.528 286.415 482.551C286.432 482.568 286.436 482.586 286.44 482.607C286.53 482.949 286.698 483.264 286.93 483.53C287.163 483.796 287.454 484.004 287.78 484.139C287.817 484.158 287.801 484.198 287.784 484.241C287.776 484.26 287.769 484.279 287.765 484.3C287.602 485.291 286.204 493.816 285.828 496.118V496.118ZM283.622 498.323C282.843 499.094 282.384 499.502 281.865 499.666C281.353 499.828 280.804 499.828 280.292 499.666C279.685 499.473 279.159 498.949 278.11 497.898L266.382 486.171L269.446 481.421C269.459 481.397 269.476 481.376 269.498 481.359C269.531 481.336 269.577 481.346 269.617 481.359C270.32 481.571 271.075 481.533 271.753 481.251C271.788 481.238 271.823 481.229 271.85 481.254C271.864 481.266 271.876 481.28 271.887 481.295L283.622 498.324L283.622 498.323ZM265.252 485.041L262.562 482.35L267.874 480.084C267.888 480.078 267.903 480.075 267.917 480.074C267.962 480.074 267.988 480.119 268.011 480.159C268.065 480.241 268.121 480.321 268.181 480.399L268.198 480.42C268.214 480.442 268.203 480.464 268.187 480.485L265.253 485.04L265.252 485.041ZM261.371 481.16L257.968 477.756C257.389 477.177 256.969 476.757 256.677 476.396L267.026 478.543C267.039 478.545 267.052 478.547 267.065 478.549C267.129 478.559 267.199 478.571 267.199 478.631C267.199 478.696 267.122 478.726 267.057 478.751L267.027 478.764L261.371 481.16ZM256.082 474.646C256.094 474.427 256.133 474.21 256.2 474.001C256.393 473.393 256.917 472.868 257.968 471.818L262.323 467.462C264.329 470.373 266.339 473.279 268.356 476.182C268.391 476.229 268.43 476.281 268.39 476.32C268.199 476.53 268.009 476.76 267.874 477.009C267.86 477.041 267.837 477.069 267.809 477.09C267.792 477.1 267.774 477.096 267.755 477.092H267.752L256.082 474.644V474.646ZM263.489 466.296L269.345 460.44C269.896 460.681 271.899 461.528 273.69 462.284C275.047 462.858 276.283 463.379 276.671 463.549C276.71 463.564 276.746 463.58 276.763 463.619C276.773 463.643 276.768 463.673 276.763 463.697C276.67 464.12 276.684 464.559 276.803 464.975C276.922 465.391 277.142 465.771 277.445 466.081C277.484 466.12 277.445 466.176 277.411 466.225L277.392 466.252L271.446 475.462C271.43 475.488 271.416 475.51 271.39 475.527C271.359 475.547 271.314 475.538 271.278 475.529C271.047 475.468 270.809 475.436 270.57 475.432C270.356 475.432 270.124 475.471 269.889 475.514H269.888C269.862 475.518 269.838 475.524 269.817 475.508C269.794 475.489 269.774 475.467 269.759 475.441L263.489 466.296ZM270.528 459.257L278.11 451.676C279.16 450.626 279.685 450.101 280.292 449.909C280.804 449.747 281.354 449.747 281.865 449.909C282.473 450.101 282.998 450.626 284.048 451.676L285.691 453.319L280.299 461.67C280.286 461.694 280.268 461.715 280.246 461.732C280.213 461.755 280.167 461.746 280.128 461.732C279.703 461.603 279.253 461.58 278.817 461.664C278.381 461.748 277.971 461.937 277.625 462.215C277.589 462.252 277.537 462.231 277.493 462.211C276.789 461.905 271.312 459.59 270.528 459.257L270.528 459.257ZM286.836 454.464L291.815 459.442L290.615 466.873V466.892C290.614 466.909 290.611 466.926 290.605 466.942C290.592 466.968 290.566 466.973 290.54 466.981C290.283 467.059 290.041 467.179 289.825 467.337C289.816 467.344 289.807 467.351 289.799 467.359C289.784 467.375 289.77 467.389 289.747 467.392C289.728 467.392 289.709 467.389 289.691 467.383L282.104 464.159L282.089 464.153C282.041 464.133 281.984 464.109 281.984 464.06C281.939 463.637 281.801 463.23 281.58 462.867C281.543 462.807 281.503 462.744 281.534 462.683L286.836 454.464ZM281.709 465.686L288.821 468.699C288.86 468.717 288.903 468.734 288.92 468.774C288.927 468.798 288.927 468.824 288.92 468.848C288.896 468.961 288.883 469.076 288.881 469.191V469.391C288.881 469.441 288.83 469.461 288.783 469.481L288.769 469.486C287.642 469.967 272.951 476.232 272.929 476.232C272.907 476.232 272.883 476.232 272.861 476.21C272.822 476.171 272.861 476.116 272.896 476.066C272.903 476.058 272.909 476.049 272.915 476.04L278.759 466.99L278.77 466.975C278.804 466.92 278.842 466.859 278.905 466.859L278.964 466.868C279.097 466.886 279.214 466.903 279.333 466.903C280.22 466.903 281.041 466.471 281.537 465.733C281.549 465.714 281.564 465.696 281.581 465.681C281.616 465.655 281.669 465.668 281.709 465.686V465.686ZM273.564 477.664L289.577 470.834C289.577 470.834 289.601 470.834 289.623 470.857C289.71 470.944 289.785 471.003 289.856 471.057L289.892 471.08C289.924 471.098 289.957 471.119 289.959 471.153C289.959 471.166 289.959 471.173 289.957 471.185L288.585 479.612L288.58 479.646C288.571 479.711 288.561 479.785 288.5 479.785C288.134 479.81 287.78 479.923 287.468 480.116C287.156 480.308 286.896 480.574 286.71 480.89L286.703 480.9C286.685 480.93 286.668 480.959 286.638 480.974C286.611 480.988 286.576 480.982 286.547 480.976L273.776 478.342C273.763 478.339 273.578 477.665 273.564 477.664H273.564Z" fill="#005C54"/>
</g>
<g filter="url(#filter6_d_4_498)">
<path d="M726.784 26.4154C739.021 19.3541 754.113 19.3541 766.351 26.4154V26.4154C778.587 33.4758 786.135 46.5343 786.135 60.6615V60.6615C786.135 74.7887 778.587 87.8472 766.351 94.9076V94.9076C754.113 101.969 739.021 101.969 726.784 94.9076V94.9076C714.547 87.8472 707 74.7887 707 60.6615V60.6615C707 46.5343 714.547 33.4758 726.784 26.4154V26.4154Z" fill="#3178C6"/>
</g>
<path d="M728.875 41C727.837 41 727 41.8367 727 42.875V79.125C727 80.1633 727.837 81 728.875 81H765.125C766.163 81 767 80.1633 767 79.125V42.875C767 41.8367 766.163 41 765.125 41H728.875ZM757.813 57.25C758.833 57.25 759.737 57.3117 760.525 57.435C761.269 57.5464 761.998 57.7364 762.702 58.0017V62.0983C762.364 61.8648 762.005 61.6634 761.63 61.4967C761.243 61.3226 760.844 61.1777 760.435 61.0633C759.661 60.8477 758.862 60.7356 758.058 60.73C757.558 60.73 757.103 60.7767 756.693 60.8733C756.328 60.9515 755.977 61.0877 755.655 61.2767C755.372 61.45 755.155 61.6583 755 61.9C754.844 62.1436 754.763 62.4275 754.767 62.7167C754.767 63.0433 754.855 63.3383 755.027 63.5983C755.2 63.8583 755.447 64.105 755.765 64.3383C756.083 64.5717 756.47 64.7983 756.925 65.0217C757.38 65.2467 757.895 65.4783 758.468 65.715C759.252 66.0433 759.955 66.3933 760.578 66.7617C761.202 67.1317 761.737 67.55 762.183 68.0167C762.63 68.4817 762.97 69.0133 763.207 69.6117C763.443 70.21 763.563 70.905 763.563 71.7C763.563 72.795 763.355 73.7167 762.942 74.46C762.538 75.1931 761.958 75.8145 761.255 76.2683C760.497 76.749 759.657 77.0857 758.777 77.2617C757.833 77.4617 756.838 77.5617 755.793 77.5617C754.765 77.5662 753.738 77.4747 752.727 77.2883C751.852 77.137 751.003 76.8602 750.207 76.4667V72.0833C751.713 73.3652 753.624 74.0736 755.602 74.0833C756.157 74.0833 756.642 74.0333 757.055 73.9333C757.47 73.8333 757.815 73.6933 758.093 73.5167C758.37 73.3367 758.577 73.1267 758.715 72.8833C758.868 72.6 758.937 72.2792 758.916 71.958C758.894 71.6368 758.781 71.3284 758.592 71.0683C758.344 70.7406 758.041 70.4586 757.697 70.235C757.269 69.9518 756.82 69.7043 756.352 69.495C755.797 69.2417 755.238 68.9995 754.673 68.7683C753.143 68.13 752.003 67.3483 751.252 66.4267C750.502 65.505 750.125 64.39 750.125 63.085C750.125 62.0617 750.33 61.1833 750.74 60.4483C751.15 59.7133 751.707 59.1083 752.413 58.6333C753.161 58.1402 753.991 57.7852 754.863 57.585C755.83 57.3571 756.82 57.2446 757.813 57.25V57.25ZM732.625 57.5633H748.563V61.1733H742.843V77.25H738.315V61.1733H732.625V57.5633Z" fill="#122D4A"/>
<g filter="url(#filter7_d_4_498)">
<path d="M1015.41 425.046C1026.18 418.832 1039.47 418.832 1050.24 425.046V425.046C1061.01 431.258 1067.65 442.75 1067.65 455.182V455.182C1067.65 467.614 1061.01 479.107 1050.24 485.319V485.319C1039.47 491.532 1026.18 491.532 1015.41 485.319V485.319C1004.64 479.107 998 467.614 998 455.182V455.182C998 442.75 1004.64 431.258 1015.41 425.046V425.046Z" fill="#F3FFA6"/>
</g>
<path d="M1015.16 437.604V472.604H1050.16V437.604H1015.16ZM1033.91 464.792C1033.91 468.199 1031.9 469.86 1028.99 469.86C1026.36 469.86 1024.83 468.497 1024.05 466.853L1026.73 465.232C1027.25 466.148 1027.64 466.923 1028.77 466.923C1029.71 466.923 1030.48 466.501 1030.48 464.856V453.854H1033.91V464.792ZM1041.68 469.782C1038.62 469.782 1036.65 468.404 1035.69 466.501L1038.37 464.948C1039.07 466.1 1039.99 466.867 1041.61 466.867C1042.97 466.867 1043.76 466.264 1043.76 465.324C1043.76 464.197 1042.95 463.797 1041.44 463.137L1040.62 462.783C1038.25 461.774 1036.68 460.505 1036.68 457.826C1036.68 455.36 1038.55 453.558 1041.49 453.558C1043.58 453.558 1045.09 454.208 1046.17 456.112L1043.6 457.761C1043.04 456.751 1042.43 456.354 1041.49 456.354C1040.52 456.354 1039.91 456.965 1039.91 457.761C1039.91 458.747 1040.52 459.147 1041.93 459.758L1042.76 460.11C1045.55 461.308 1047.13 462.532 1047.13 465.279C1047.13 468.24 1044.8 469.782 1041.68 469.782Z" fill="#3E4517"/>
<path d="M1322.9 137.675C1331.21 132.862 1341.46 132.862 1349.77 137.675V137.675C1358.04 142.468 1363.14 151.381 1363.14 160.943V160.943C1363.14 170.506 1358.04 179.419 1349.77 184.212V184.212C1341.46 189.025 1331.21 189.025 1322.9 184.212V184.212C1314.63 179.419 1309.53 170.506 1309.53 160.943V160.943C1309.53 151.381 1314.63 142.468 1322.9 137.675V137.675Z" stroke="#29A1FF" stroke-opacity="0.25" stroke-width="4"/>
<path d="M1171.84 115.854C1179.18 111.613 1188.23 111.613 1195.56 115.854V115.854C1202.89 120.09 1207.41 127.932 1207.41 136.397V136.397C1207.41 144.862 1202.89 152.704 1195.56 156.94V156.94C1188.23 161.18 1179.18 161.18 1171.84 156.94V156.94C1164.51 152.704 1160 144.862 1160 136.397V136.397C1160 127.932 1164.51 120.09 1171.84 115.854V115.854Z" stroke="#29A1FF" stroke-opacity="0.25" stroke-width="4"/>
<path d="M1243.87 25.3374C1257.08 17.704 1273.36 17.704 1286.57 25.3374V25.3374C1299.76 32.9614 1307.89 47.0772 1307.89 62.3144V62.3144C1307.89 77.5516 1299.76 91.6674 1286.57 99.2915V99.2915C1273.36 106.925 1257.08 106.925 1243.87 99.2915V99.2915C1230.68 91.6674 1222.55 77.5516 1222.55 62.3144V62.3144C1222.55 47.0772 1230.68 32.9614 1243.87 25.3374V25.3374Z" stroke="#29A1FF" stroke-opacity="0.25" stroke-width="4"/>
</g>
<defs>
<filter id="filter0_d_4_498" x="933" y="26.4082" width="256.889" height="256.936" filterUnits="userSpaceOnUse" color-interpolation-filters="sRGB">
<feFlood flood-opacity="0" result="BackgroundImageFix"/>
<feColorMatrix in="SourceAlpha" type="matrix" values="0 0 0 0 0 0 0 0 0 0 0 0 0 0 0 0 0 0 127 0" result="hardAlpha"/>
<feOffset dy="4"/>
<feGaussianBlur stdDeviation="50"/>
<feComposite in2="hardAlpha" operator="out"/>
<feColorMatrix type="matrix" values="0 0 0 0 1 0 0 0 0 1 0 0 0 0 1 0 0 0 0.5 0"/>
<feBlend mode="normal" in2="BackgroundImageFix" result="effect1_dropShadow_4_498"/>
<feBlend mode="normal" in="SourceGraphic" in2="effect1_dropShadow_4_498" result="shape"/>
</filter>
<filter id="filter1_d_4_498" x="34.9219" y="126.049" width="282.052" height="282.225" filterUnits="userSpaceOnUse" color-interpolation-filters="sRGB">
<feFlood flood-opacity="0" result="BackgroundImageFix"/>
<feColorMatrix in="SourceAlpha" type="matrix" values="0 0 0 0 0 0 0 0 0 0 0 0 0 0 0 0 0 0 127 0" result="hardAlpha"/>
<feOffset dy="4"/>
<feGaussianBlur stdDeviation="50"/>
<feComposite in2="hardAlpha" operator="out"/>
<feColorMatrix type="matrix" values="0 0 0 0 0.0235294 0 0 0 0 0.713726 0 0 0 0 0.831373 0 0 0 0.5 0"/>
<feBlend mode="normal" in2="BackgroundImageFix" result="effect1_dropShadow_4_498"/>
<feBlend mode="normal" in="SourceGraphic" in2="effect1_dropShadow_4_498" result="shape"/>
</filter>
<filter id="filter2_d_4_498" x="201" y="-32.5918" width="256.889" height="256.936" filterUnits="userSpaceOnUse" color-interpolation-filters="sRGB">
<feFlood flood-opacity="0" result="BackgroundImageFix"/>
<feColorMatrix in="SourceAlpha" type="matrix" values="0 0 0 0 0 0 0 0 0 0 0 0 0 0 0 0 0 0 127 0" result="hardAlpha"/>
<feOffset dy="4"/>
<feGaussianBlur stdDeviation="50"/>
<feComposite in2="hardAlpha" operator="out"/>
<feColorMatrix type="matrix" values="0 0 0 0 1 0 0 0 0 0.690196 0 0 0 0 0.466667 0 0 0 0.5 0"/>
<feBlend mode="normal" in2="BackgroundImageFix" result="effect1_dropShadow_4_498"/>
<feBlend mode="normal" in="SourceGraphic" in2="effect1_dropShadow_4_498" result="shape"/>
</filter>
<filter id="filter3_d_4_498" x="508" y="294.906" width="263.089" height="263.246" filterUnits="userSpaceOnUse" color-interpolation-filters="sRGB">
<feFlood flood-opacity="0" result="BackgroundImageFix"/>
<feColorMatrix in="SourceAlpha" type="matrix" values="0 0 0 0 0 0 0 0 0 0 0 0 0 0 0 0 0 0 127 0" result="hardAlpha"/>
<feOffset dy="4"/>
<feGaussianBlur stdDeviation="50"/>
<feComposite in2="hardAlpha" operator="out"/>
<feColorMatrix type="matrix" values="0 0 0 0 0 0 0 0 0 0.396078 0 0 0 0 0.992157 0 0 0 0.5 0"/>
<feBlend mode="normal" in2="BackgroundImageFix" result="effect1_dropShadow_4_498"/>
<feBlend mode="normal" in="SourceGraphic" in2="effect1_dropShadow_4_498" result="shape"/>
</filter>
<filter id="filter4_d_4_498" x="1134" y="192.641" width="272.57" height="272.735" filterUnits="userSpaceOnUse" color-interpolation-filters="sRGB">
<feFlood flood-opacity="0" result="BackgroundImageFix"/>
<feColorMatrix in="SourceAlpha" type="matrix" values="0 0 0 0 0 0 0 0 0 0 0 0 0 0 0 0 0 0 127 0" result="hardAlpha"/>
<feOffset dy="4"/>
<feGaussianBlur stdDeviation="50"/>
<feComposite in2="hardAlpha" operator="out"/>
<feColorMatrix type="matrix" values="0 0 0 0 0.65098 0 0 0 0 0.976471 0 0 0 0 1 0 0 0 0.5 0"/>
<feBlend mode="normal" in2="BackgroundImageFix" result="effect1_dropShadow_4_498"/>
<feBlend mode="normal" in="SourceGraphic" in2="effect1_dropShadow_4_498" result="shape"/>
</filter>
<filter id="filter5_d_4_498" x="143" y="340.878" width="275.853" height="275.915" filterUnits="userSpaceOnUse" color-interpolation-filters="sRGB">
<feFlood flood-opacity="0" result="BackgroundImageFix"/>
<feColorMatrix in="SourceAlpha" type="matrix" values="0 0 0 0 0 0 0 0 0 0 0 0 0 0 0 0 0 0 127 0" result="hardAlpha"/>
<feOffset dy="4"/>
<feGaussianBlur stdDeviation="50"/>
<feComposite in2="hardAlpha" operator="out"/>
<feColorMatrix type="matrix" values="0 0 0 0 0 0 0 0 0 0.780392 0 0 0 0 0.717647 0 0 0 0.5 0"/>
<feBlend mode="normal" in2="BackgroundImageFix" result="effect1_dropShadow_4_498"/>
<feBlend mode="normal" in="SourceGraphic" in2="effect1_dropShadow_4_498" result="shape"/>
</filter>
<filter id="filter6_d_4_498" x="607" y="-74.8806" width="279.135" height="279.084" filterUnits="userSpaceOnUse" color-interpolation-filters="sRGB">
<feFlood flood-opacity="0" result="BackgroundImageFix"/>
<feColorMatrix in="SourceAlpha" type="matrix" values="0 0 0 0 0 0 0 0 0 0 0 0 0 0 0 0 0 0 127 0" result="hardAlpha"/>
<feOffset dy="4"/>
<feGaussianBlur stdDeviation="50"/>
<feComposite in2="hardAlpha" operator="out"/>
<feColorMatrix type="matrix" values="0 0 0 0 0.192157 0 0 0 0 0.470588 0 0 0 0 0.776471 0 0 0 0.5 0"/>
<feBlend mode="normal" in2="BackgroundImageFix" result="effect1_dropShadow_4_498"/>
<feBlend mode="normal" in="SourceGraphic" in2="effect1_dropShadow_4_498" result="shape"/>
</filter>
<filter id="filter7_d_4_498" x="898" y="324.386" width="269.653" height="269.593" filterUnits="userSpaceOnUse" color-interpolation-filters="sRGB">
<feFlood flood-opacity="0" result="BackgroundImageFix"/>
<feColorMatrix in="SourceAlpha" type="matrix" values="0 0 0 0 0 0 0 0 0 0 0 0 0 0 0 0 0 0 127 0" result="hardAlpha"/>
<feOffset dy="4"/>
<feGaussianBlur stdDeviation="50"/>
<feComposite in2="hardAlpha" operator="out"/>
<feColorMatrix type="matrix" values="0 0 0 0 0.952941 0 0 0 0 1 0 0 0 0 0.65098 0 0 0 0.5 0"/>
<feBlend mode="normal" in2="BackgroundImageFix" result="effect1_dropShadow_4_498"/>
<feBlend mode="normal" in="SourceGraphic" in2="effect1_dropShadow_4_498" result="shape"/>
</filter>
<linearGradient id="paint0_linear_4_498" x1="495" y1="186" x2="1006.36" y2="267.12" gradientUnits="userSpaceOnUse">
<stop stop-color="#3E81FF"/>
<stop offset="0.510417" stop-color="#29A1FF"/>
<stop offset="1" stop-color="#00E0FF"/>
</linearGradient>
<clipPath id="clip0_4_498">
<rect width="1500" height="500" rx="50" fill="white"/>
</clipPath>
<clipPath id="clip1_4_498">
<rect width="50" height="50" fill="white" transform="translate(151 238)"/>
</clipPath>
<clipPath id="clip2_4_498">
<rect width="50" height="50" fill="white" transform="translate(256.055 449.788)"/>
</clipPath>
</defs>
</svg>
