<svg width="816" height="87" viewBox="0 0 816 87" fill="none" xmlns="http://www.w3.org/2000/svg">
<rect width="816" height="87" rx="4" fill="url(#paint0_linear_719_69)"/>
<path d="M291.408 23.344V37.968C291.408 40.6773 290.693 42.736 289.264 44.144C287.856 45.5307 285.872 46.224 283.312 46.224C280.56 46.224 278.373 45.4667 276.752 43.952C275.131 42.4373 274.32 40.2293 274.32 37.328H281.328C281.328 38.2453 281.477 38.896 281.776 39.28C282.075 39.6427 282.48 39.824 282.992 39.824C283.419 39.824 283.749 39.6853 283.984 39.408C284.219 39.1307 284.336 38.6507 284.336 37.968V23.344H291.408ZM309.003 42.576H301.451L300.331 46H292.875L301.163 23.344H309.355L317.611 46H310.123L309.003 42.576ZM307.275 37.232L305.227 30.928L303.179 37.232H307.275ZM318.585 34.64C318.585 32.4 319.033 30.4053 319.929 28.656C320.846 26.9067 322.148 25.552 323.833 24.592C325.518 23.6107 327.502 23.12 329.785 23.12C331.748 23.12 333.497 23.4933 335.033 24.24C336.59 24.9653 337.849 26 338.809 27.344C339.79 28.688 340.441 30.256 340.761 32.048H333.273C332.932 31.3013 332.441 30.7253 331.801 30.32C331.182 29.8933 330.468 29.68 329.657 29.68C328.462 29.68 327.513 30.128 326.809 31.024C326.126 31.92 325.785 33.1253 325.785 34.64C325.785 36.1547 326.126 37.36 326.809 38.256C327.513 39.152 328.462 39.6 329.657 39.6C330.468 39.6 331.182 39.3973 331.801 38.992C332.441 38.5653 332.932 37.9787 333.273 37.232H340.761C340.441 39.024 339.79 40.592 338.809 41.936C337.849 43.28 336.59 44.3253 335.033 45.072C333.497 45.7973 331.748 46.16 329.785 46.16C327.502 46.16 325.518 45.68 323.833 44.72C322.148 43.7387 320.846 42.3733 319.929 40.624C319.033 38.8747 318.585 36.88 318.585 34.64ZM354.359 46.224C352.225 46.224 350.263 45.7227 348.471 44.72C346.7 43.7173 345.292 42.3307 344.247 40.56C343.201 38.7893 342.679 36.7947 342.679 34.576C342.679 32.3573 343.201 30.3627 344.247 28.592C345.292 26.8213 346.7 25.4453 348.471 24.464C350.263 23.4613 352.225 22.96 354.359 22.96C356.492 22.96 358.444 23.4613 360.215 24.464C361.985 25.4453 363.383 26.8213 364.407 28.592C365.452 30.3627 365.975 32.3573 365.975 34.576C365.975 36.7947 365.452 38.7893 364.407 40.56C363.383 42.3307 361.975 43.7173 360.183 44.72C358.412 45.7227 356.471 46.224 354.359 46.224ZM354.359 39.6C355.767 39.6 356.855 39.152 357.623 38.256C358.391 37.3387 358.775 36.112 358.775 34.576C358.775 33.0187 358.391 31.792 357.623 30.896C356.855 29.9787 355.767 29.52 354.359 29.52C352.929 29.52 351.831 29.9787 351.063 30.896C350.295 31.792 349.911 33.0187 349.911 34.576C349.911 36.112 350.295 37.3387 351.063 38.256C351.831 39.152 352.929 39.6 354.359 39.6ZM383.706 34.384C385.071 34.704 386.127 35.3653 386.874 36.368C387.642 37.3493 388.026 38.4907 388.026 39.792C388.026 41.776 387.364 43.312 386.042 44.4C384.74 45.4667 382.863 46 380.41 46H368.538V23.344H380.09C382.394 23.344 384.207 23.8453 385.53 24.848C386.852 25.8507 387.514 27.312 387.514 29.232C387.514 30.5547 387.162 31.6747 386.458 32.592C385.775 33.488 384.858 34.0853 383.706 34.384ZM375.642 32.176H378.394C379.034 32.176 379.503 32.048 379.802 31.792C380.122 31.536 380.282 31.1413 380.282 30.608C380.282 30.0533 380.122 29.648 379.802 29.392C379.503 29.1147 379.034 28.976 378.394 28.976H375.642V32.176ZM378.874 40.304C379.514 40.304 379.983 40.1867 380.282 39.952C380.602 39.696 380.762 39.2907 380.762 38.736C380.762 37.648 380.132 37.104 378.874 37.104H375.642V40.304H378.874ZM404.714 46.224C402.005 46.224 399.765 45.5947 397.994 44.336C396.245 43.056 395.295 41.1893 395.146 38.736H402.698C402.805 40.0373 403.381 40.688 404.426 40.688C404.81 40.688 405.13 40.6027 405.386 40.432C405.663 40.24 405.802 39.952 405.802 39.568C405.802 39.0347 405.514 38.608 404.938 38.288C404.362 37.9467 403.466 37.5627 402.25 37.136C400.799 36.624 399.594 36.1227 398.634 35.632C397.695 35.1413 396.885 34.4267 396.202 33.488C395.519 32.5493 395.189 31.344 395.21 29.872C395.21 28.4 395.583 27.152 396.33 26.128C397.098 25.0827 398.133 24.2933 399.434 23.76C400.757 23.2267 402.239 22.96 403.882 22.96C406.655 22.96 408.853 23.6 410.474 24.88C412.117 26.16 412.981 27.9627 413.066 30.288H405.418C405.397 29.648 405.237 29.1893 404.938 28.912C404.639 28.6347 404.277 28.496 403.85 28.496C403.551 28.496 403.306 28.6027 403.114 28.816C402.922 29.008 402.826 29.2853 402.826 29.648C402.826 30.16 403.103 30.5867 403.658 30.928C404.234 31.248 405.141 31.6427 406.378 32.112C407.807 32.6453 408.981 33.1573 409.898 33.648C410.837 34.1387 411.647 34.8213 412.33 35.696C413.013 36.5707 413.354 37.6693 413.354 38.992C413.354 40.3787 413.013 41.6267 412.33 42.736C411.647 43.824 410.655 44.6773 409.354 45.296C408.053 45.9147 406.506 46.224 404.714 46.224ZM436.81 23.344V46H429.706V37.168H422.954V46H415.85V23.344H422.954V31.504H429.706V23.344H436.81ZM446.95 23.344V36.112C446.95 37.1573 447.174 37.9893 447.622 38.608C448.092 39.2053 448.838 39.504 449.862 39.504C450.886 39.504 451.644 39.2053 452.134 38.608C452.625 37.9893 452.87 37.1573 452.87 36.112V23.344H459.942V36.112C459.942 38.2667 459.494 40.112 458.598 41.648C457.702 43.1627 456.476 44.304 454.918 45.072C453.361 45.84 451.622 46.224 449.702 46.224C447.782 46.224 446.076 45.84 444.582 45.072C443.11 44.304 441.958 43.1627 441.126 41.648C440.294 40.1333 439.878 38.288 439.878 36.112V23.344H446.95ZM490.238 23.344V46H483.166V34.704L479.678 46H473.598L470.11 34.704V46H463.006V23.344H471.71L476.702 36.944L481.566 23.344H490.238ZM507.972 42.576H500.42L499.3 46H491.844L500.132 23.344H508.324L516.58 46H509.092L507.972 42.576ZM506.244 37.232L504.196 30.928L502.148 37.232H506.244ZM539.922 46H532.818L525.298 34.608V46H518.194V23.344H525.298L532.818 34.928V23.344H539.922V46Z" fill="#3B87FF"/>
<path d="M289.104 65.6719C289.064 65.2997 288.896 65.0099 288.601 64.8026C288.308 64.5952 287.928 64.4915 287.459 64.4915C287.129 64.4915 286.847 64.5412 286.611 64.6406C286.375 64.7401 286.195 64.875 286.07 65.0455C285.945 65.2159 285.881 65.4105 285.878 65.6293C285.878 65.8111 285.919 65.9687 286.001 66.1023C286.087 66.2358 286.202 66.3494 286.347 66.4432C286.491 66.5341 286.652 66.6108 286.828 66.6733C287.004 66.7358 287.182 66.7884 287.361 66.831L288.179 67.0355C288.509 67.1122 288.825 67.2159 289.129 67.3466C289.436 67.4773 289.71 67.642 289.952 67.8409C290.196 68.0398 290.389 68.2798 290.531 68.5611C290.673 68.8423 290.744 69.1719 290.744 69.5497C290.744 70.0611 290.614 70.5114 290.352 70.9006C290.091 71.2869 289.713 71.5895 289.219 71.8082C288.727 72.0241 288.132 72.1321 287.433 72.1321C286.754 72.1321 286.165 72.027 285.665 71.8168C285.168 71.6065 284.778 71.2997 284.497 70.8963C284.219 70.4929 284.068 70.0014 284.045 69.4219H285.601C285.624 69.7259 285.717 69.9787 285.882 70.1804C286.047 70.3821 286.261 70.5327 286.526 70.6321C286.793 70.7315 287.091 70.7812 287.42 70.7812C287.764 70.7812 288.065 70.7301 288.324 70.6278C288.585 70.5227 288.79 70.3778 288.938 70.1932C289.085 70.0057 289.161 69.7869 289.163 69.5369C289.161 69.3097 289.094 69.1222 288.963 68.9744C288.832 68.8239 288.649 68.6989 288.413 68.5994C288.18 68.4972 287.908 68.4062 287.595 68.3267L286.602 68.071C285.884 67.8864 285.315 67.6065 284.898 67.2315C284.483 66.8537 284.276 66.3523 284.276 65.7273C284.276 65.2131 284.415 64.7628 284.693 64.3764C284.974 63.9901 285.357 63.6903 285.839 63.4773C286.322 63.2614 286.869 63.1534 287.48 63.1534C288.099 63.1534 288.642 63.2614 289.108 63.4773C289.577 63.6903 289.945 63.9872 290.212 64.3679C290.479 64.7457 290.616 65.1804 290.625 65.6719H289.104ZM305.952 67.6364C305.952 68.5767 305.776 69.3821 305.424 70.0526C305.074 70.7202 304.597 71.2315 303.992 71.5866C303.39 71.9418 302.706 72.1193 301.942 72.1193C301.178 72.1193 300.493 71.9418 299.888 71.5866C299.286 71.2287 298.809 70.7159 298.456 70.0483C298.107 69.3778 297.932 68.5739 297.932 67.6364C297.932 66.696 298.107 65.892 298.456 65.2244C298.809 64.554 299.286 64.0412 299.888 63.6861C300.493 63.331 301.178 63.1534 301.942 63.1534C302.706 63.1534 303.39 63.331 303.992 63.6861C304.597 64.0412 305.074 64.554 305.424 65.2244C305.776 65.892 305.952 66.696 305.952 67.6364ZM304.363 67.6364C304.363 66.9744 304.259 66.4162 304.051 65.9616C303.847 65.5043 303.563 65.1591 303.199 64.9261C302.836 64.6903 302.417 64.5724 301.942 64.5724C301.468 64.5724 301.049 64.6903 300.685 64.9261C300.321 65.1591 300.036 65.5043 299.828 65.9616C299.624 66.4162 299.522 66.9744 299.522 67.6364C299.522 68.2983 299.624 68.858 299.828 69.3153C300.036 69.7699 300.321 70.1151 300.685 70.3509C301.049 70.5838 301.468 70.7003 301.942 70.7003C302.417 70.7003 302.836 70.5838 303.199 70.3509C303.563 70.1151 303.847 69.7699 304.051 69.3153C304.259 68.858 304.363 68.2983 304.363 67.6364ZM313.447 72V63.2727H319.038V64.598H315.028V66.9673H318.654V68.2926H315.028V72H313.447ZM326.094 64.598V63.2727H333.058V64.598H330.36V72H328.792V64.598H326.094ZM342.237 72L339.773 63.2727H341.474L343.046 69.6861H343.127L344.806 63.2727H346.353L348.036 69.6903H348.113L349.685 63.2727H351.386L348.923 72H347.363L345.616 65.8764H345.548L343.796 72H342.237ZM358.782 72H357.095L360.167 63.2727H362.119L365.196 72H363.508L361.177 65.0625H361.109L358.782 72ZM358.838 68.5781H363.44V69.848H358.838V68.5781ZM372.345 72V63.2727H375.618C376.288 63.2727 376.851 63.3892 377.305 63.6222C377.763 63.8551 378.108 64.1818 378.341 64.6023C378.577 65.0199 378.695 65.5071 378.695 66.0639C378.695 66.6236 378.575 67.1094 378.337 67.5213C378.101 67.9304 377.753 68.2472 377.293 68.4716C376.832 68.6932 376.267 68.804 375.597 68.804H373.266V67.4915H375.384C375.776 67.4915 376.097 67.4375 376.347 67.3295C376.597 67.2187 376.781 67.0582 376.901 66.848C377.023 66.6349 377.084 66.3736 377.084 66.0639C377.084 65.7543 377.023 65.4901 376.901 65.2713C376.778 65.0497 376.592 64.8821 376.342 64.7685C376.092 64.652 375.77 64.5938 375.375 64.5938H373.926V72H372.345ZM376.854 68.0455L379.014 72H377.25L375.128 68.0455H376.854ZM386.15 72V63.2727H391.826V64.598H387.731V66.9673H391.532V68.2926H387.731V70.6747H391.86V72H386.15ZM411.373 72H408.415V63.2727H411.433C412.299 63.2727 413.043 63.4474 413.665 63.7969C414.29 64.1435 414.771 64.642 415.106 65.2926C415.441 65.9432 415.609 66.7216 415.609 67.6278C415.609 68.5369 415.44 69.3182 415.102 69.9716C414.766 70.625 414.282 71.1264 413.648 71.4759C413.018 71.8253 412.259 72 411.373 72ZM409.996 70.6321H411.296C411.904 70.6321 412.411 70.5213 412.817 70.2997C413.224 70.0753 413.529 69.7415 413.734 69.2983C413.938 68.8523 414.04 68.2955 414.04 67.6278C414.04 66.9602 413.938 66.4062 413.734 65.9659C413.529 65.5227 413.227 65.1918 412.826 64.973C412.428 64.7514 411.934 64.6406 411.343 64.6406H409.996V70.6321ZM423.111 72V63.2727H428.787V64.598H424.692V66.9673H428.493V68.2926H424.692V70.6747H428.821V72H423.111ZM437.567 63.2727L439.839 70.142H439.928L442.195 63.2727H443.934L440.857 72H438.906L435.833 63.2727H437.567ZM451.083 72V63.2727H456.76V64.598H452.664V66.9673H456.466V68.2926H452.664V70.6747H456.794V72H451.083ZM464.373 72V63.2727H465.953V70.6747H469.797V72H464.373ZM484.628 67.6364C484.628 68.5767 484.452 69.3821 484.099 70.0526C483.75 70.7202 483.273 71.2315 482.668 71.5866C482.065 71.9418 481.382 72.1193 480.618 72.1193C479.854 72.1193 479.169 71.9418 478.564 71.5866C477.962 71.2287 477.484 70.7159 477.132 70.0483C476.783 69.3778 476.608 68.5739 476.608 67.6364C476.608 66.696 476.783 65.892 477.132 65.2244C477.484 64.554 477.962 64.0412 478.564 63.6861C479.169 63.331 479.854 63.1534 480.618 63.1534C481.382 63.1534 482.065 63.331 482.668 63.6861C483.273 64.0412 483.75 64.554 484.099 65.2244C484.452 65.892 484.628 66.696 484.628 67.6364ZM483.038 67.6364C483.038 66.9744 482.935 66.4162 482.727 65.9616C482.523 65.5043 482.239 65.1591 481.875 64.9261C481.511 64.6903 481.092 64.5724 480.618 64.5724C480.143 64.5724 479.724 64.6903 479.361 64.9261C478.997 65.1591 478.712 65.5043 478.504 65.9616C478.3 66.4162 478.197 66.9744 478.197 67.6364C478.197 68.2983 478.3 68.858 478.504 69.3153C478.712 69.7699 478.997 70.1151 479.361 70.3509C479.724 70.5838 480.143 70.7003 480.618 70.7003C481.092 70.7003 481.511 70.5838 481.875 70.3509C482.239 70.1151 482.523 69.7699 482.727 69.3153C482.935 68.858 483.038 68.2983 483.038 67.6364ZM492.123 72V63.2727H495.395C496.066 63.2727 496.628 63.3977 497.083 63.6477C497.54 63.8977 497.885 64.2415 498.118 64.679C498.354 65.1136 498.472 65.608 498.472 66.1619C498.472 66.7216 498.354 67.2187 498.118 67.6534C497.882 68.0881 497.534 68.4304 497.074 68.6804C496.614 68.9276 496.047 69.0511 495.374 69.0511H493.205V67.7514H495.161C495.553 67.7514 495.874 67.6832 496.124 67.5469C496.374 67.4105 496.559 67.223 496.678 66.9844C496.8 66.7457 496.861 66.4716 496.861 66.1619C496.861 65.8523 496.8 65.5795 496.678 65.3438C496.559 65.108 496.373 64.9247 496.12 64.794C495.87 64.6605 495.547 64.5938 495.152 64.5938H493.703V72H492.123ZM505.845 72V63.2727H511.521V64.598H507.426V66.9673H511.227V68.2926H507.426V70.6747H511.555V72H505.845ZM519.134 72V63.2727H522.407C523.077 63.2727 523.64 63.3892 524.094 63.6222C524.552 63.8551 524.897 64.1818 525.13 64.6023C525.366 65.0199 525.484 65.5071 525.484 66.0639C525.484 66.6236 525.364 67.1094 525.126 67.5213C524.89 67.9304 524.542 68.2472 524.082 68.4716C523.621 68.6932 523.056 68.804 522.386 68.804H520.055V67.4915H522.173C522.565 67.4915 522.886 67.4375 523.136 67.3295C523.386 67.2187 523.57 67.0582 523.69 66.848C523.812 66.6349 523.873 66.3736 523.873 66.0639C523.873 65.7543 523.812 65.4901 523.69 65.2713C523.567 65.0497 523.381 64.8821 523.131 64.7685C522.881 64.652 522.559 64.5938 522.164 64.5938H520.715V72H519.134ZM523.643 68.0455L525.803 72H524.039L521.917 68.0455H523.643Z" fill="white"/>
<defs>
<linearGradient id="paint0_linear_719_69" x1="408" y1="-295.437" x2="408" y2="87" gradientUnits="userSpaceOnUse">
<stop stop-color="#3B87FF"/>
<stop offset="1"/>
</linearGradient>
</defs>
</svg>
