<svg width="816" height="87" viewBox="0 0 816 87" fill="none" xmlns="http://www.w3.org/2000/svg">
<rect width="816" height="87" rx="4" fill="url(#paint0_linear_719_102)"/>
<path d="M53.408 23.344V37.968C53.408 40.6773 52.6933 42.736 51.264 44.144C49.856 45.5307 47.872 46.224 45.312 46.224C42.56 46.224 40.3733 45.4667 38.752 43.952C37.1307 42.4373 36.32 40.2293 36.32 37.328H43.328C43.328 38.2453 43.4773 38.896 43.776 39.28C44.0747 39.6427 44.48 39.824 44.992 39.824C45.4187 39.824 45.7493 39.6853 45.984 39.408C46.2187 39.1307 46.336 38.6507 46.336 37.968V23.344H53.408ZM71.003 42.576H63.451L62.331 46H54.875L63.163 23.344H71.355L79.611 46H72.123L71.003 42.576ZM69.275 37.232L67.227 30.928L65.179 37.232H69.275ZM80.585 34.64C80.585 32.4 81.033 30.4053 81.929 28.656C82.8463 26.9067 84.1477 25.552 85.833 24.592C87.5183 23.6107 89.5023 23.12 91.785 23.12C93.7477 23.12 95.497 23.4933 97.033 24.24C98.5903 24.9653 99.849 26 100.809 27.344C101.79 28.688 102.441 30.256 102.761 32.048H95.273C94.9317 31.3013 94.441 30.7253 93.801 30.32C93.1823 29.8933 92.4677 29.68 91.657 29.68C90.4623 29.68 89.513 30.128 88.809 31.024C88.1263 31.92 87.785 33.1253 87.785 34.64C87.785 36.1547 88.1263 37.36 88.809 38.256C89.513 39.152 90.4623 39.6 91.657 39.6C92.4677 39.6 93.1823 39.3973 93.801 38.992C94.441 38.5653 94.9317 37.9787 95.273 37.232H102.761C102.441 39.024 101.79 40.592 100.809 41.936C99.849 43.28 98.5903 44.3253 97.033 45.072C95.497 45.7973 93.7477 46.16 91.785 46.16C89.5023 46.16 87.5183 45.68 85.833 44.72C84.1477 43.7387 82.8463 42.3733 81.929 40.624C81.033 38.8747 80.585 36.88 80.585 34.64ZM116.359 46.224C114.225 46.224 112.263 45.7227 110.471 44.72C108.7 43.7173 107.292 42.3307 106.247 40.56C105.201 38.7893 104.679 36.7947 104.679 34.576C104.679 32.3573 105.201 30.3627 106.247 28.592C107.292 26.8213 108.7 25.4453 110.471 24.464C112.263 23.4613 114.225 22.96 116.359 22.96C118.492 22.96 120.444 23.4613 122.215 24.464C123.985 25.4453 125.383 26.8213 126.407 28.592C127.452 30.3627 127.975 32.3573 127.975 34.576C127.975 36.7947 127.452 38.7893 126.407 40.56C125.383 42.3307 123.975 43.7173 122.183 44.72C120.412 45.7227 118.471 46.224 116.359 46.224ZM116.359 39.6C117.767 39.6 118.855 39.152 119.623 38.256C120.391 37.3387 120.775 36.112 120.775 34.576C120.775 33.0187 120.391 31.792 119.623 30.896C118.855 29.9787 117.767 29.52 116.359 29.52C114.929 29.52 113.831 29.9787 113.063 30.896C112.295 31.792 111.911 33.0187 111.911 34.576C111.911 36.112 112.295 37.3387 113.063 38.256C113.831 39.152 114.929 39.6 116.359 39.6ZM145.706 34.384C147.071 34.704 148.127 35.3653 148.874 36.368C149.642 37.3493 150.026 38.4907 150.026 39.792C150.026 41.776 149.364 43.312 148.042 44.4C146.74 45.4667 144.863 46 142.41 46H130.538V23.344H142.09C144.394 23.344 146.207 23.8453 147.53 24.848C148.852 25.8507 149.514 27.312 149.514 29.232C149.514 30.5547 149.162 31.6747 148.458 32.592C147.775 33.488 146.858 34.0853 145.706 34.384ZM137.642 32.176H140.394C141.034 32.176 141.503 32.048 141.802 31.792C142.122 31.536 142.282 31.1413 142.282 30.608C142.282 30.0533 142.122 29.648 141.802 29.392C141.503 29.1147 141.034 28.976 140.394 28.976H137.642V32.176ZM140.874 40.304C141.514 40.304 141.983 40.1867 142.282 39.952C142.602 39.696 142.762 39.2907 142.762 38.736C142.762 37.648 142.132 37.104 140.874 37.104H137.642V40.304H140.874ZM166.714 46.224C164.005 46.224 161.765 45.5947 159.994 44.336C158.245 43.056 157.295 41.1893 157.146 38.736H164.698C164.805 40.0373 165.381 40.688 166.426 40.688C166.81 40.688 167.13 40.6027 167.386 40.432C167.663 40.24 167.802 39.952 167.802 39.568C167.802 39.0347 167.514 38.608 166.938 38.288C166.362 37.9467 165.466 37.5627 164.25 37.136C162.799 36.624 161.594 36.1227 160.634 35.632C159.695 35.1413 158.885 34.4267 158.202 33.488C157.519 32.5493 157.189 31.344 157.21 29.872C157.21 28.4 157.583 27.152 158.33 26.128C159.098 25.0827 160.133 24.2933 161.434 23.76C162.757 23.2267 164.239 22.96 165.882 22.96C168.655 22.96 170.853 23.6 172.474 24.88C174.117 26.16 174.981 27.9627 175.066 30.288H167.418C167.397 29.648 167.237 29.1893 166.938 28.912C166.639 28.6347 166.277 28.496 165.85 28.496C165.551 28.496 165.306 28.6027 165.114 28.816C164.922 29.008 164.826 29.2853 164.826 29.648C164.826 30.16 165.103 30.5867 165.658 30.928C166.234 31.248 167.141 31.6427 168.378 32.112C169.807 32.6453 170.981 33.1573 171.898 33.648C172.837 34.1387 173.647 34.8213 174.33 35.696C175.013 36.5707 175.354 37.6693 175.354 38.992C175.354 40.3787 175.013 41.6267 174.33 42.736C173.647 43.824 172.655 44.6773 171.354 45.296C170.053 45.9147 168.506 46.224 166.714 46.224ZM198.81 23.344V46H191.706V37.168H184.954V46H177.85V23.344H184.954V31.504H191.706V23.344H198.81ZM208.95 23.344V36.112C208.95 37.1573 209.174 37.9893 209.622 38.608C210.092 39.2053 210.838 39.504 211.862 39.504C212.886 39.504 213.644 39.2053 214.134 38.608C214.625 37.9893 214.87 37.1573 214.87 36.112V23.344H221.942V36.112C221.942 38.2667 221.494 40.112 220.598 41.648C219.702 43.1627 218.476 44.304 216.918 45.072C215.361 45.84 213.622 46.224 211.702 46.224C209.782 46.224 208.076 45.84 206.582 45.072C205.11 44.304 203.958 43.1627 203.126 41.648C202.294 40.1333 201.878 38.288 201.878 36.112V23.344H208.95ZM252.238 23.344V46H245.166V34.704L241.678 46H235.598L232.11 34.704V46H225.006V23.344H233.71L238.702 36.944L243.566 23.344H252.238ZM269.972 42.576H262.42L261.3 46H253.844L262.132 23.344H270.324L278.58 46H271.092L269.972 42.576ZM268.244 37.232L266.196 30.928L264.148 37.232H268.244ZM301.922 46H294.818L287.298 34.608V46H280.194V23.344H287.298L294.818 34.928V23.344H301.922V46Z" fill="#3B87FF"/>
<path d="M41.6037 65.6719C41.5639 65.2997 41.3963 65.0099 41.1009 64.8026C40.8082 64.5952 40.4276 64.4915 39.9588 64.4915C39.6293 64.4915 39.3466 64.5412 39.1108 64.6406C38.875 64.7401 38.6946 64.875 38.5696 65.0455C38.4446 65.2159 38.3807 65.4105 38.3778 65.6293C38.3778 65.8111 38.419 65.9687 38.5014 66.1023C38.5866 66.2358 38.7017 66.3494 38.8466 66.4432C38.9915 66.5341 39.152 66.6108 39.3281 66.6733C39.5043 66.7358 39.6818 66.7884 39.8608 66.831L40.679 67.0355C41.0085 67.1122 41.3253 67.2159 41.6293 67.3466C41.9361 67.4773 42.2102 67.642 42.4517 67.8409C42.696 68.0398 42.8892 68.2798 43.0312 68.5611C43.1733 68.8423 43.2443 69.1719 43.2443 69.5497C43.2443 70.0611 43.1136 70.5114 42.8523 70.9006C42.5909 71.2869 42.2131 71.5895 41.7188 71.8082C41.2273 72.0241 40.6321 72.1321 39.9332 72.1321C39.2543 72.1321 38.6648 72.027 38.1648 71.8168C37.6676 71.6065 37.2784 71.2997 36.9972 70.8963C36.7188 70.4929 36.5682 70.0014 36.5455 69.4219H38.1009C38.1236 69.7259 38.2173 69.9787 38.3821 70.1804C38.5469 70.3821 38.7614 70.5327 39.0256 70.6321C39.2926 70.7315 39.5909 70.7812 39.9205 70.7812C40.2642 70.7812 40.5653 70.7301 40.8239 70.6278C41.0852 70.5227 41.2898 70.3778 41.4375 70.1932C41.5852 70.0057 41.6605 69.7869 41.6634 69.5369C41.6605 69.3097 41.5938 69.1222 41.4631 68.9744C41.3324 68.8239 41.1491 68.6989 40.9134 68.5994C40.6804 68.4972 40.4077 68.4062 40.0952 68.3267L39.1023 68.071C38.3835 67.8864 37.8153 67.6065 37.3977 67.2315C36.983 66.8537 36.7756 66.3523 36.7756 65.7273C36.7756 65.2131 36.9148 64.7628 37.1932 64.3764C37.4744 63.9901 37.8565 63.6903 38.3395 63.4773C38.8224 63.2614 39.3693 63.1534 39.9801 63.1534C40.5994 63.1534 41.142 63.2614 41.608 63.4773C42.0767 63.6903 42.4446 63.9872 42.7116 64.3679C42.9787 64.7457 43.1165 65.1804 43.125 65.6719H41.6037ZM58.4521 67.6364C58.4521 68.5767 58.2759 69.3821 57.9237 70.0526C57.5742 70.7202 57.0969 71.2315 56.4918 71.5866C55.8896 71.9418 55.2063 72.1193 54.4421 72.1193C53.6779 72.1193 52.9933 71.9418 52.3881 71.5866C51.7859 71.2287 51.3086 70.7159 50.9563 70.0483C50.6069 69.3778 50.4322 68.5739 50.4322 67.6364C50.4322 66.696 50.6069 65.892 50.9563 65.2244C51.3086 64.554 51.7859 64.0412 52.3881 63.6861C52.9933 63.331 53.6779 63.1534 54.4421 63.1534C55.2063 63.1534 55.8896 63.331 56.4918 63.6861C57.0969 64.0412 57.5742 64.554 57.9237 65.2244C58.2759 65.892 58.4521 66.696 58.4521 67.6364ZM56.8626 67.6364C56.8626 66.9744 56.7589 66.4162 56.5515 65.9616C56.3469 65.5043 56.0629 65.1591 55.6992 64.9261C55.3356 64.6903 54.9165 64.5724 54.4421 64.5724C53.9677 64.5724 53.5487 64.6903 53.185 64.9261C52.8214 65.1591 52.5359 65.5043 52.3285 65.9616C52.1239 66.4162 52.0217 66.9744 52.0217 67.6364C52.0217 68.2983 52.1239 68.858 52.3285 69.3153C52.5359 69.7699 52.8214 70.1151 53.185 70.3509C53.5487 70.5838 53.9677 70.7003 54.4421 70.7003C54.9165 70.7003 55.3356 70.5838 55.6992 70.3509C56.0629 70.1151 56.3469 69.7699 56.5515 69.3153C56.7589 68.858 56.8626 68.2983 56.8626 67.6364ZM65.9467 72V63.2727H71.5376V64.598H67.5277V66.9673H71.1541V68.2926H67.5277V72H65.9467ZM78.5945 64.598V63.2727H85.5575V64.598H82.8601V72H81.2919V64.598H78.5945ZM94.7365 72L92.2734 63.2727H93.9737L95.5462 69.6861H95.6271L97.3061 63.2727H98.853L100.536 69.6903H100.613L102.185 63.2727H103.886L101.423 72H99.8629L98.1158 65.8764H98.0476L96.2962 72H94.7365ZM111.282 72H109.595L112.667 63.2727H114.619L117.696 72H116.008L113.677 65.0625H113.609L111.282 72ZM111.338 68.5781H115.94V69.848H111.338V68.5781ZM124.845 72V63.2727H128.118C128.788 63.2727 129.351 63.3892 129.805 63.6222C130.263 63.8551 130.608 64.1818 130.841 64.6023C131.077 65.0199 131.195 65.5071 131.195 66.0639C131.195 66.6236 131.075 67.1094 130.837 67.5213C130.601 67.9304 130.253 68.2472 129.793 68.4716C129.332 68.6932 128.767 68.804 128.097 68.804H125.766V67.4915H127.884C128.276 67.4915 128.597 67.4375 128.847 67.3295C129.097 67.2187 129.281 67.0582 129.401 66.848C129.523 66.6349 129.584 66.3736 129.584 66.0639C129.584 65.7543 129.523 65.4901 129.401 65.2713C129.278 65.0497 129.092 64.8821 128.842 64.7685C128.592 64.652 128.27 64.5938 127.875 64.5938H126.426V72H124.845ZM129.354 68.0455L131.514 72H129.75L127.628 68.0455H129.354ZM138.65 72V63.2727H144.326V64.598H140.231V66.9673H144.032V68.2926H140.231V70.6747H144.36V72H138.65ZM163.873 72H160.915V63.2727H163.933C164.799 63.2727 165.543 63.4474 166.165 63.7969C166.79 64.1435 167.271 64.642 167.606 65.2926C167.941 65.9432 168.109 66.7216 168.109 67.6278C168.109 68.5369 167.94 69.3182 167.602 69.9716C167.266 70.625 166.782 71.1264 166.148 71.4759C165.518 71.8253 164.759 72 163.873 72ZM162.496 70.6321H163.796C164.404 70.6321 164.911 70.5213 165.317 70.2997C165.724 70.0753 166.029 69.7415 166.234 69.2983C166.438 68.8523 166.54 68.2955 166.54 67.6278C166.54 66.9602 166.438 66.4062 166.234 65.9659C166.029 65.5227 165.727 65.1918 165.326 64.973C164.928 64.7514 164.434 64.6406 163.843 64.6406H162.496V70.6321ZM175.611 72V63.2727H181.287V64.598H177.192V66.9673H180.993V68.2926H177.192V70.6747H181.321V72H175.611ZM190.067 63.2727L192.339 70.142H192.428L194.695 63.2727H196.434L193.357 72H191.406L188.333 63.2727H190.067ZM203.583 72V63.2727H209.26V64.598H205.164V66.9673H208.966V68.2926H205.164V70.6747H209.294V72H203.583ZM216.873 72V63.2727H218.453V70.6747H222.297V72H216.873ZM237.128 67.6364C237.128 68.5767 236.952 69.3821 236.599 70.0526C236.25 70.7202 235.773 71.2315 235.168 71.5866C234.565 71.9418 233.882 72.1193 233.118 72.1193C232.354 72.1193 231.669 71.9418 231.064 71.5866C230.462 71.2287 229.984 70.7159 229.632 70.0483C229.283 69.3778 229.108 68.5739 229.108 67.6364C229.108 66.696 229.283 65.892 229.632 65.2244C229.984 64.554 230.462 64.0412 231.064 63.6861C231.669 63.331 232.354 63.1534 233.118 63.1534C233.882 63.1534 234.565 63.331 235.168 63.6861C235.773 64.0412 236.25 64.554 236.599 65.2244C236.952 65.892 237.128 66.696 237.128 67.6364ZM235.538 67.6364C235.538 66.9744 235.435 66.4162 235.227 65.9616C235.023 65.5043 234.739 65.1591 234.375 64.9261C234.011 64.6903 233.592 64.5724 233.118 64.5724C232.643 64.5724 232.224 64.6903 231.861 64.9261C231.497 65.1591 231.212 65.5043 231.004 65.9616C230.8 66.4162 230.697 66.9744 230.697 67.6364C230.697 68.2983 230.8 68.858 231.004 69.3153C231.212 69.7699 231.497 70.1151 231.861 70.3509C232.224 70.5838 232.643 70.7003 233.118 70.7003C233.592 70.7003 234.011 70.5838 234.375 70.3509C234.739 70.1151 235.023 69.7699 235.227 69.3153C235.435 68.858 235.538 68.2983 235.538 67.6364ZM244.623 72V63.2727H247.895C248.566 63.2727 249.128 63.3977 249.583 63.6477C250.04 63.8977 250.385 64.2415 250.618 64.679C250.854 65.1136 250.972 65.608 250.972 66.1619C250.972 66.7216 250.854 67.2187 250.618 67.6534C250.382 68.0881 250.034 68.4304 249.574 68.6804C249.114 68.9276 248.547 69.0511 247.874 69.0511H245.705V67.7514H247.661C248.053 67.7514 248.374 67.6832 248.624 67.5469C248.874 67.4105 249.059 67.223 249.178 66.9844C249.3 66.7457 249.361 66.4716 249.361 66.1619C249.361 65.8523 249.3 65.5795 249.178 65.3438C249.059 65.108 248.873 64.9247 248.62 64.794C248.37 64.6605 248.047 64.5938 247.652 64.5938H246.203V72H244.623ZM258.345 72V63.2727H264.021V64.598H259.926V66.9673H263.727V68.2926H259.926V70.6747H264.055V72H258.345ZM271.634 72V63.2727H274.907C275.577 63.2727 276.14 63.3892 276.594 63.6222C277.052 63.8551 277.397 64.1818 277.63 64.6023C277.866 65.0199 277.984 65.5071 277.984 66.0639C277.984 66.6236 277.864 67.1094 277.626 67.5213C277.39 67.9304 277.042 68.2472 276.582 68.4716C276.121 68.6932 275.556 68.804 274.886 68.804H272.555V67.4915H274.673C275.065 67.4915 275.386 67.4375 275.636 67.3295C275.886 67.2187 276.07 67.0582 276.19 66.848C276.312 66.6349 276.373 66.3736 276.373 66.0639C276.373 65.7543 276.312 65.4901 276.19 65.2713C276.067 65.0497 275.881 64.8821 275.631 64.7685C275.381 64.652 275.059 64.5938 274.664 64.5938H273.215V72H271.634ZM276.143 68.0455L278.303 72H276.539L274.417 68.0455H276.143Z" fill="white"/>
<defs>
<linearGradient id="paint0_linear_719_102" x1="408" y1="-295.437" x2="408" y2="87" gradientUnits="userSpaceOnUse">
<stop stop-color="#3B87FF"/>
<stop offset="1"/>
</linearGradient>
</defs>
</svg>
