<svg width="268" height="63" viewBox="0 0 268 63" fill="none" xmlns="http://www.w3.org/2000/svg">
<path d="M17.408 11.344V25.968C17.408 28.6773 16.6933 30.736 15.264 32.144C13.856 33.5307 11.872 34.224 9.312 34.224C6.56 34.224 4.37333 33.4667 2.752 31.952C1.13067 30.4373 0.32 28.2293 0.32 25.328H7.328C7.328 26.2453 7.47733 26.896 7.776 27.28C8.07467 27.6427 8.48 27.824 8.992 27.824C9.41867 27.824 9.74933 27.6853 9.984 27.408C10.2187 27.1307 10.336 26.6507 10.336 25.968V11.344H17.408ZM35.003 30.576H27.451L26.331 34H18.875L27.163 11.344H35.355L43.611 34H36.123L35.003 30.576ZM33.275 25.232L31.227 18.928L29.179 25.232H33.275ZM44.585 22.64C44.585 20.4 45.033 18.4053 45.929 16.656C46.8463 14.9067 48.1477 13.552 49.833 12.592C51.5183 11.6107 53.5023 11.12 55.785 11.12C57.7477 11.12 59.497 11.4933 61.033 12.24C62.5903 12.9653 63.849 14 64.809 15.344C65.7903 16.688 66.441 18.256 66.761 20.048H59.273C58.9317 19.3013 58.441 18.7253 57.801 18.32C57.1823 17.8933 56.4677 17.68 55.657 17.68C54.4623 17.68 53.513 18.128 52.809 19.024C52.1263 19.92 51.785 21.1253 51.785 22.64C51.785 24.1547 52.1263 25.36 52.809 26.256C53.513 27.152 54.4623 27.6 55.657 27.6C56.4677 27.6 57.1823 27.3973 57.801 26.992C58.441 26.5653 58.9317 25.9787 59.273 25.232H66.761C66.441 27.024 65.7903 28.592 64.809 29.936C63.849 31.28 62.5903 32.3253 61.033 33.072C59.497 33.7973 57.7477 34.16 55.785 34.16C53.5023 34.16 51.5183 33.68 49.833 32.72C48.1477 31.7387 46.8463 30.3733 45.929 28.624C45.033 26.8747 44.585 24.88 44.585 22.64ZM80.3588 34.224C78.2254 34.224 76.2628 33.7227 74.4708 32.72C72.7001 31.7173 71.2921 30.3307 70.2468 28.56C69.2014 26.7893 68.6788 24.7947 68.6788 22.576C68.6788 20.3573 69.2014 18.3627 70.2468 16.592C71.2921 14.8213 72.7001 13.4453 74.4708 12.464C76.2628 11.4613 78.2254 10.96 80.3588 10.96C82.4921 10.96 84.4441 11.4613 86.2148 12.464C87.9854 13.4453 89.3828 14.8213 90.4068 16.592C91.4521 18.3627 91.9748 20.3573 91.9748 22.576C91.9748 24.7947 91.4521 26.7893 90.4068 28.56C89.3828 30.3307 87.9748 31.7173 86.1828 32.72C84.4121 33.7227 82.4708 34.224 80.3588 34.224ZM80.3588 27.6C81.7668 27.6 82.8548 27.152 83.6228 26.256C84.3908 25.3387 84.7748 24.112 84.7748 22.576C84.7748 21.0187 84.3908 19.792 83.6228 18.896C82.8548 17.9787 81.7668 17.52 80.3588 17.52C78.9294 17.52 77.8308 17.9787 77.0628 18.896C76.2948 19.792 75.9108 21.0187 75.9108 22.576C75.9108 24.112 76.2948 25.3387 77.0628 26.256C77.8308 27.152 78.9294 27.6 80.3588 27.6ZM109.706 22.384C111.071 22.704 112.127 23.3653 112.874 24.368C113.642 25.3493 114.026 26.4907 114.026 27.792C114.026 29.776 113.364 31.312 112.042 32.4C110.74 33.4667 108.863 34 106.41 34H94.5375V11.344H106.09C108.394 11.344 110.207 11.8453 111.53 12.848C112.852 13.8507 113.514 15.312 113.514 17.232C113.514 18.5547 113.162 19.6747 112.458 20.592C111.775 21.488 110.858 22.0853 109.706 22.384ZM101.642 20.176H104.394C105.034 20.176 105.503 20.048 105.802 19.792C106.122 19.536 106.282 19.1413 106.282 18.608C106.282 18.0533 106.122 17.648 105.802 17.392C105.503 17.1147 105.034 16.976 104.394 16.976H101.642V20.176ZM104.874 28.304C105.514 28.304 105.983 28.1867 106.282 27.952C106.602 27.696 106.762 27.2907 106.762 26.736C106.762 25.648 106.132 25.104 104.874 25.104H101.642V28.304H104.874ZM130.714 34.224C128.005 34.224 125.765 33.5947 123.994 32.336C122.245 31.056 121.295 29.1893 121.146 26.736H128.698C128.805 28.0373 129.381 28.688 130.426 28.688C130.81 28.688 131.13 28.6027 131.386 28.432C131.663 28.24 131.802 27.952 131.802 27.568C131.802 27.0347 131.514 26.608 130.938 26.288C130.362 25.9467 129.466 25.5627 128.25 25.136C126.799 24.624 125.594 24.1227 124.634 23.632C123.695 23.1413 122.885 22.4267 122.202 21.488C121.519 20.5493 121.189 19.344 121.21 17.872C121.21 16.4 121.583 15.152 122.33 14.128C123.098 13.0827 124.133 12.2933 125.434 11.76C126.757 11.2267 128.239 10.96 129.882 10.96C132.655 10.96 134.853 11.6 136.474 12.88C138.117 14.16 138.981 15.9627 139.066 18.288H131.418C131.397 17.648 131.237 17.1893 130.938 16.912C130.639 16.6347 130.277 16.496 129.85 16.496C129.551 16.496 129.306 16.6027 129.114 16.816C128.922 17.008 128.826 17.2853 128.826 17.648C128.826 18.16 129.103 18.5867 129.658 18.928C130.234 19.248 131.141 19.6427 132.378 20.112C133.807 20.6453 134.981 21.1573 135.898 21.648C136.837 22.1387 137.647 22.8213 138.33 23.696C139.013 24.5707 139.354 25.6693 139.354 26.992C139.354 28.3787 139.013 29.6267 138.33 30.736C137.647 31.824 136.655 32.6773 135.354 33.296C134.053 33.9147 132.506 34.224 130.714 34.224ZM162.81 11.344V34H155.706V25.168H148.954V34H141.85V11.344H148.954V19.504H155.706V11.344H162.81ZM172.95 11.344V24.112C172.95 25.1573 173.174 25.9893 173.622 26.608C174.092 27.2053 174.838 27.504 175.862 27.504C176.886 27.504 177.644 27.2053 178.134 26.608C178.625 25.9893 178.87 25.1573 178.87 24.112V11.344H185.942V24.112C185.942 26.2667 185.494 28.112 184.598 29.648C183.702 31.1627 182.476 32.304 180.918 33.072C179.361 33.84 177.622 34.224 175.702 34.224C173.782 34.224 172.076 33.84 170.582 33.072C169.11 32.304 167.958 31.1627 167.126 29.648C166.294 28.1333 165.878 26.288 165.878 24.112V11.344H172.95ZM216.238 11.344V34H209.166V22.704L205.678 34H199.598L196.11 22.704V34H189.006V11.344H197.71L202.702 24.944L207.566 11.344H216.238ZM233.972 30.576H226.42L225.3 34H217.844L226.132 11.344H234.324L242.58 34H235.092L233.972 30.576ZM232.244 25.232L230.196 18.928L228.148 25.232H232.244ZM265.922 34H258.818L251.298 22.608V34H244.194V11.344H251.298L258.818 22.928V11.344H265.922V34Z" fill="#3B87FF"/>
<path d="M5.60369 53.6719C5.56392 53.2997 5.39631 53.0099 5.10085 52.8026C4.80824 52.5952 4.42756 52.4915 3.95881 52.4915C3.62926 52.4915 3.34659 52.5412 3.1108 52.6406C2.875 52.7401 2.6946 52.875 2.5696 53.0455C2.4446 53.2159 2.38068 53.4105 2.37784 53.6293C2.37784 53.8111 2.41903 53.9687 2.50142 54.1023C2.58665 54.2358 2.7017 54.3494 2.84659 54.4432C2.99148 54.5341 3.15199 54.6108 3.32812 54.6733C3.50426 54.7358 3.68182 54.7884 3.8608 54.831L4.67898 55.0355C5.00852 55.1122 5.32528 55.2159 5.62926 55.3466C5.93608 55.4773 6.21023 55.642 6.4517 55.8409C6.69602 56.0398 6.8892 56.2798 7.03125 56.5611C7.1733 56.8423 7.24432 57.1719 7.24432 57.5497C7.24432 58.0611 7.11364 58.5114 6.85227 58.9006C6.59091 59.2869 6.21307 59.5895 5.71875 59.8082C5.22727 60.0241 4.6321 60.1321 3.93324 60.1321C3.25426 60.1321 2.66477 60.027 2.16477 59.8168C1.66761 59.6065 1.27841 59.2997 0.997159 58.8963C0.71875 58.4929 0.568182 58.0014 0.545455 57.4219H2.10085C2.12358 57.7259 2.21733 57.9787 2.3821 58.1804C2.54688 58.3821 2.76136 58.5327 3.02557 58.6321C3.29261 58.7315 3.59091 58.7812 3.92045 58.7812C4.2642 58.7812 4.56534 58.7301 4.82386 58.6278C5.08523 58.5227 5.28977 58.3778 5.4375 58.1932C5.58523 58.0057 5.66051 57.7869 5.66335 57.5369C5.66051 57.3097 5.59375 57.1222 5.46307 56.9744C5.33239 56.8239 5.14915 56.6989 4.91335 56.5994C4.6804 56.4972 4.40767 56.4062 4.09517 56.3267L3.10227 56.071C2.38352 55.8864 1.81534 55.6065 1.39773 55.2315C0.982955 54.8537 0.775568 54.3523 0.775568 53.7273C0.775568 53.2131 0.914773 52.7628 1.19318 52.3764C1.47443 51.9901 1.85653 51.6903 2.33949 51.4773C2.82244 51.2614 3.36932 51.1534 3.98011 51.1534C4.59943 51.1534 5.14205 51.2614 5.60795 51.4773C6.0767 51.6903 6.4446 51.9872 6.71165 52.3679C6.97869 52.7457 7.11648 53.1804 7.125 53.6719H5.60369ZM22.4521 55.6364C22.4521 56.5767 22.2759 57.3821 21.9237 58.0526C21.5742 58.7202 21.0969 59.2315 20.4918 59.5866C19.8896 59.9418 19.2063 60.1193 18.4421 60.1193C17.6779 60.1193 16.9933 59.9418 16.3881 59.5866C15.7859 59.2287 15.3086 58.7159 14.9563 58.0483C14.6069 57.3778 14.4322 56.5739 14.4322 55.6364C14.4322 54.696 14.6069 53.892 14.9563 53.2244C15.3086 52.554 15.7859 52.0412 16.3881 51.6861C16.9933 51.331 17.6779 51.1534 18.4421 51.1534C19.2063 51.1534 19.8896 51.331 20.4918 51.6861C21.0969 52.0412 21.5742 52.554 21.9237 53.2244C22.2759 53.892 22.4521 54.696 22.4521 55.6364ZM20.8626 55.6364C20.8626 54.9744 20.7589 54.4162 20.5515 53.9616C20.3469 53.5043 20.0629 53.1591 19.6992 52.9261C19.3356 52.6903 18.9165 52.5724 18.4421 52.5724C17.9677 52.5724 17.5487 52.6903 17.185 52.9261C16.8214 53.1591 16.5359 53.5043 16.3285 53.9616C16.1239 54.4162 16.0217 54.9744 16.0217 55.6364C16.0217 56.2983 16.1239 56.858 16.3285 57.3153C16.5359 57.7699 16.8214 58.1151 17.185 58.3509C17.5487 58.5838 17.9677 58.7003 18.4421 58.7003C18.9165 58.7003 19.3356 58.5838 19.6992 58.3509C20.0629 58.1151 20.3469 57.7699 20.5515 57.3153C20.7589 56.858 20.8626 56.2983 20.8626 55.6364ZM29.9467 60V51.2727H35.5376V52.598H31.5277V54.9673H35.1541V56.2926H31.5277V60H29.9467ZM42.5945 52.598V51.2727H49.5575V52.598H46.8601V60H45.2919V52.598H42.5945ZM58.7365 60L56.2734 51.2727H57.9737L59.5462 57.6861H59.6271L61.3061 51.2727H62.853L64.5362 57.6903H64.6129L66.1854 51.2727H67.8857L65.4226 60H63.8629L62.1158 53.8764H62.0476L60.2962 60H58.7365ZM75.2823 60H73.5948L76.6673 51.2727H78.619L81.6957 60H80.0082L77.6772 53.0625H77.609L75.2823 60ZM75.3377 56.5781H79.94V57.848H75.3377V56.5781ZM88.8452 60V51.2727H92.1179C92.7884 51.2727 93.3509 51.3892 93.8054 51.6222C94.2628 51.8551 94.608 52.1818 94.8409 52.6023C95.0767 53.0199 95.1946 53.5071 95.1946 54.0639C95.1946 54.6236 95.0753 55.1094 94.8366 55.5213C94.6009 55.9304 94.2528 56.2472 93.7926 56.4716C93.3324 56.6932 92.767 56.804 92.0966 56.804H89.7656V55.4915H91.8835C92.2756 55.4915 92.5966 55.4375 92.8466 55.3295C93.0966 55.2187 93.2813 55.0582 93.4006 54.848C93.5227 54.6349 93.5838 54.3736 93.5838 54.0639C93.5838 53.7543 93.5227 53.4901 93.4006 53.2713C93.2784 53.0497 93.0923 52.8821 92.8423 52.7685C92.5923 52.652 92.2699 52.5938 91.875 52.5938H90.4261V60H88.8452ZM93.3537 56.0455L95.5142 60H93.75L91.6278 56.0455H93.3537ZM102.65 60V51.2727H108.326V52.598H104.231V54.9673H108.032V56.2926H104.231V58.6747H108.36V60H102.65ZM127.873 60H124.915V51.2727H127.933C128.799 51.2727 129.543 51.4474 130.165 51.7969C130.79 52.1435 131.271 52.642 131.606 53.2926C131.941 53.9432 132.109 54.7216 132.109 55.6278C132.109 56.5369 131.94 57.3182 131.602 57.9716C131.266 58.625 130.782 59.1264 130.148 59.4759C129.518 59.8253 128.759 60 127.873 60ZM126.496 58.6321H127.796C128.404 58.6321 128.911 58.5213 129.317 58.2997C129.724 58.0753 130.029 57.7415 130.234 57.2983C130.438 56.8523 130.54 56.2955 130.54 55.6278C130.54 54.9602 130.438 54.4062 130.234 53.9659C130.029 53.5227 129.727 53.1918 129.326 52.973C128.928 52.7514 128.434 52.6406 127.843 52.6406H126.496V58.6321ZM139.611 60V51.2727H145.287V52.598H141.192V54.9673H144.993V56.2926H141.192V58.6747H145.321V60H139.611ZM154.067 51.2727L156.339 58.142H156.428L158.695 51.2727H160.434L157.357 60H155.406L152.333 51.2727H154.067ZM167.583 60V51.2727H173.26V52.598H169.164V54.9673H172.966V56.2926H169.164V58.6747H173.294V60H167.583ZM180.873 60V51.2727H182.453V58.6747H186.297V60H180.873ZM201.128 55.6364C201.128 56.5767 200.952 57.3821 200.599 58.0526C200.25 58.7202 199.773 59.2315 199.168 59.5866C198.565 59.9418 197.882 60.1193 197.118 60.1193C196.354 60.1193 195.669 59.9418 195.064 59.5866C194.462 59.2287 193.984 58.7159 193.632 58.0483C193.283 57.3778 193.108 56.5739 193.108 55.6364C193.108 54.696 193.283 53.892 193.632 53.2244C193.984 52.554 194.462 52.0412 195.064 51.6861C195.669 51.331 196.354 51.1534 197.118 51.1534C197.882 51.1534 198.565 51.331 199.168 51.6861C199.773 52.0412 200.25 52.554 200.599 53.2244C200.952 53.892 201.128 54.696 201.128 55.6364ZM199.538 55.6364C199.538 54.9744 199.435 54.4162 199.227 53.9616C199.023 53.5043 198.739 53.1591 198.375 52.9261C198.011 52.6903 197.592 52.5724 197.118 52.5724C196.643 52.5724 196.224 52.6903 195.861 52.9261C195.497 53.1591 195.212 53.5043 195.004 53.9616C194.8 54.4162 194.697 54.9744 194.697 55.6364C194.697 56.2983 194.8 56.858 195.004 57.3153C195.212 57.7699 195.497 58.1151 195.861 58.3509C196.224 58.5838 196.643 58.7003 197.118 58.7003C197.592 58.7003 198.011 58.5838 198.375 58.3509C198.739 58.1151 199.023 57.7699 199.227 57.3153C199.435 56.858 199.538 56.2983 199.538 55.6364ZM208.623 60V51.2727H211.895C212.566 51.2727 213.128 51.3977 213.583 51.6477C214.04 51.8977 214.385 52.2415 214.618 52.679C214.854 53.1136 214.972 53.608 214.972 54.1619C214.972 54.7216 214.854 55.2187 214.618 55.6534C214.382 56.0881 214.034 56.4304 213.574 56.6804C213.114 56.9276 212.547 57.0511 211.874 57.0511H209.705V55.7514H211.661C212.053 55.7514 212.374 55.6832 212.624 55.5469C212.874 55.4105 213.059 55.223 213.178 54.9844C213.3 54.7457 213.361 54.4716 213.361 54.1619C213.361 53.8523 213.3 53.5795 213.178 53.3438C213.059 53.108 212.873 52.9247 212.62 52.794C212.37 52.6605 212.047 52.5938 211.652 52.5938H210.203V60H208.623ZM222.345 60V51.2727H228.021V52.598H223.926V54.9673H227.727V56.2926H223.926V58.6747H228.055V60H222.345ZM235.634 60V51.2727H238.907C239.577 51.2727 240.14 51.3892 240.594 51.6222C241.052 51.8551 241.397 52.1818 241.63 52.6023C241.866 53.0199 241.984 53.5071 241.984 54.0639C241.984 54.6236 241.864 55.1094 241.626 55.5213C241.39 55.9304 241.042 56.2472 240.582 56.4716C240.121 56.6932 239.556 56.804 238.886 56.804H236.555V55.4915H238.673C239.065 55.4915 239.386 55.4375 239.636 55.3295C239.886 55.2187 240.07 55.0582 240.19 54.848C240.312 54.6349 240.373 54.3736 240.373 54.0639C240.373 53.7543 240.312 53.4901 240.19 53.2713C240.067 53.0497 239.881 52.8821 239.631 52.7685C239.381 52.652 239.059 52.5938 238.664 52.5938H237.215V60H235.634ZM240.143 56.0455L242.303 60H240.539L238.417 56.0455H240.143Z" fill="black"/>
</svg>
